<svg width="705" height="697" viewBox="0 0 705 697" fill="none" xmlns="http://www.w3.org/2000/svg"><path d="M273.3 271.7H79.7V142h193.6v129.6Z" fill="white"/><path d="M273.3 271.7v-2.4l-.1-6.8v-26L273 142l.3.3H79.7l.3-.3v129.6l-.3-.4 139.4.2H259a33379.7 33379.7 0 0 0 14.3.2H259l-39.7.1-139.7.2h-.3V141.8h194.1v.3l-.1 94.5v26l-.1 6.8v2.3Z" fill="#DFDFDF"/><path d="M79.7 153.7c0-.2 43.3-.3 96.7-.3 53.4 0 96.7.1 96.7.3 0 .2-43.3.4-96.7.4-53.4 0-96.7-.2-96.7-.4Z" fill="#DFDFDF"/><path d="M87.3 147.9a1.6 1.6 0 1 1-3 0 1.6 1.6 0 0 1 3 0Z" fill="#DFDFDF" fill-opacity=".3"/><path d="M92.6 147.9a1.6 1.6 0 1 1-3 0 1.6 1.6 0 0 1 3 0Z" fill="#DFDFDF" fill-opacity=".3"/><path d="M97.9 147.9a1.6 1.6 0 1 1-3.1 0 1.6 1.6 0 0 1 3 0Z" fill="#DFDFDF" fill-opacity=".3"/><path d="M148 218.8H96.3v-51.6H148v51.6Z" fill="#DFDFDF"/><path d="M246.7 181.8c0 .2-20.1.3-45 .3-24.8 0-45-.1-45-.3 0-.2 20.2-.4 45-.4 24.9 0 45 .2 45 .4Z" fill="#DFDFDF"/><path d="M246.7 191.4c0 .2-20.1.3-45 .3-24.8 0-45-.1-45-.3 0-.2 20.2-.4 45-.4 24.9 0 45 .2 45 .4Z" fill="#DFDFDF"/><path d="M246.7 201c0 .2-20.1.3-45 .3-24.8 0-45-.1-45-.3 0-.2 20.2-.4 45-.4 24.9 0 45 .2 45 .4Z" fill="#DFDFDF"/><path d="M210 210.6h-2.2l-5.7.2a1521.9 1521.9 0 0 1-37.6 0l-5.7-.1-2-.1 2-.2h5.7a1500.2 1500.2 0 0 1 37.6 0h5.7c1.4 0 2.1.1 2.1.2Z" fill="#DFDFDF"/><path d="M123.8 260.5H99.5v-24.3h24.3v24.3Z" fill="#DFDFDF"/><path d="M167.8 260.5h-24.2v-24.3h24.2v24.3Z" fill="#DFDFDF"/><path d="M211.8 260.5h-24.2v-24.3h24.2v24.3Z" fill="#DFDFDF"/><path d="M255.9 260.5h-24.3v-24.3h24.3v24.3Z" fill="#DFDFDF"/><path d="M626 175s-.2.8-1 2.1a9.8 9.8 0 0 1-10 4.2 10 10 0 1 1 10.4-15.2 9.8 9.8 0 0 1 .6 8.8s.3-.8.5-2.3a9.8 9.8 0 0 0-4.6-9.3 9.6 9.6 0 0 0-14 4.7 9.6 9.6 0 0 0 11.6 12.6 9.8 9.8 0 0 0 5.3-3.6c.9-1.3 1.2-2.1 1.2-2Z" fill="#DFDFDF"/><path d="M635.3 184.2h.3l1 .2 4.1.5v.1l3.2-8.5v.1l-4.6-3v-.2c.2-1.8.1-3.8-.2-5.9v-.1l4.5-3.4v.3l-3.8-8.4.2.1-5.4 1.1h-.2a22.2 22.2 0 0 0-4.3-4.1l-.1-.1v-.2l.8-5.4.2.2-8.6-3.2.3-.1-3 4.6h-.3c-1.8-.1-3.9-.1-5.9.2h-.2c-1-1.5-2.2-3-3.4-4.5h.4l-8.4 3.8.2-.3 1 5.4v.2a22.2 22.2 0 0 0-4.1 4.3c-.1 0 .3 0-.3.2h-.1l-.2-.1h-.4l-.6-.1-1.4-.2-2.7-.4.3-.2-3.3 8.5-.1-.3 4.5 3 .2.1v.2c-.2 2-.2 4 .1 5.9v.2l-4.5 3.4v-.4l3.8 8.4-.3-.2 5.4-1h.2c1.3 1.6 2.7 3 4.3 4.1l.1.1v.2l-.8 5.4-.2-.2 8.6 3.3h-.3l3.1-4.5v-.1h.2c2.1.2 4 .2 6-.1l3.4 4.5h-.2l8.4-3.7-.1.1-1-5.4v-.1c1.6-1.3 2.6-2.4 3.2-3.1l.7-.9.3-.3-.2.4-.7.8c-.6.8-1.6 2-3.2 3.2l1.1 5.4c-2.4 1.2-5.1 2.4-8.4 3.8h-.1l-3.4-4.4h.2c-1.9.3-3.9.4-6 .2h.1l-3 4.5-.1.2-.2-.1-8.5-3.3h-.2v-.2l.8-5.5.1.2a24 24 0 0 1-4.4-4.1h.3l-5.4 1.2h-.2l-.1-.2-3.7-8.4-.1-.1.1-.2 4.5-3.3-.1.3c-.3-2-.4-4-.2-6l.1.2-4.6-3-.1-.2v-.2l3.3-8.5.1-.2h.2l2.8.4 1.3.2h.7l.4.1h.3c-.5.3-.1.2-.3.2 1.3-1.7 2.7-3.2 4.2-4.4l-.1.3-1-5.4-.1-.2.2-.1 8.4-3.7.2-.1v.2l3.4 4.4-.3-.1c2.1-.3 4.2-.4 6-.2l-.2.2 3.1-4.6.1-.2h.2l8.5 3.4h.2v.2l-.8 5.5-.1-.2c1.7 1.2 3.2 2.7 4.4 4.1h-.3l5.5-1.1h.1l.1.1 3.7 8.4v.2l-4.5 3.3v-.2c.4 2.1.4 4.2.2 6v-.1c1.6 1.1 3.1 2.2 4.5 3v.2l-3.3 8.6-4.1-.6-1-.2h-.4Z" fill="#DFDFDF"/><path fill-rule="evenodd" clip-rule="evenodd" d="M683.9 158.2c-1 1.4-2.1 2.6-3.4 3.6l.9 4.5-7 3-2.7-3.6c-1.6.3-3.3.3-5 .1l-2.5 3.8-7-2.7.6-4.5c-1.4-1-2.6-2.2-3.6-3.4l-4.5.9-3-7 3.6-2.7c-.3-1.6-.3-3.3-.1-5l-3.8-2.5 2.7-7 4.5.6c1-1.4 2.2-2.6 3.4-3.6l-.8-4.5 6.9-3 2.7 3.6c1.7-.3 3.3-.3 5-.1l2.5-3.8 7.1 2.7-.6 4.5c1.3 1 2.5 2.2 3.5 3.4l4.5-.8 3.1 6.9-3.7 2.7c.3 1.6.3 3.3.2 5l3.8 2.5-2.8 7.1-4.5-.7Zm-7.7-7.7a8.1 8.1 0 1 0-15.1-5.8 8.1 8.1 0 0 0 15.1 5.8Z" fill="#DFDFDF"/><path fill-rule="evenodd" clip-rule="evenodd" d="M654 116c-1.5 2.1-3.3 4-5.3 5.6l1.3 7-10.8 4.9-4.3-5.8c-2.6.4-5.2.5-7.8.2l-4 6-11.1-4.3 1-7.1c-2-1.6-4-3.4-5.6-5.4l-7 1.4-4.9-10.8 5.8-4.3c-.4-2.6-.5-5.2-.2-7.8l-6-4 4.3-11 7.1 1c1.6-2.2 3.4-4 5.4-5.7l-1.4-7 10.9-4.8 4.3 5.7c2.5-.4 5.1-.5 7.7-.2l4-6 11.1 4.3-1 7.1a29 29 0 0 1 5.6 5.4l7-1.4 5 10.9-5.9 4.3c.4 2.5.5 5.1.2 7.7l6 4-4.3 11.1-7-1Zm-12-12.1a12.8 12.8 0 1 0-23.8-9.2 12.8 12.8 0 0 0 23.8 9.2Z" fill="#DFDFDF"/><path d="m544.9 57.1.8-1a3909.7 3909.7 0 0 0 10.2-10v.4L548 39l-2.3-2.3c-.6-.5-.9-.8-.8-.9l1 .8 2.4 2.2c2 1.8 5 4.4 8 7.3l.3.2-.2.2h-.1l-8 7.6-2.5 2.2-1 .8Z" fill="#DFDFDF"/><path d="m520.7 35.8-.8 1a3768.5 3768.5 0 0 0-10.2 10v-.4l7.9 7.5 2.3 2.3c.6.5.9.9.8.9l-1-.7-2.4-2.2-8-7.4-.3-.2.2-.2h.1l8-7.6 2.5-2.2 1-.8Z" fill="#DFDFDF"/><path d="M527 62.1c-.2 0 2.3-7.2 5.6-15.9s6-15.7 6.2-15.7c.1 0-2.4 7.2-5.7 16-3.3 8.6-6 15.7-6.2 15.6Z" fill="#DFDFDF"/><path d="M572.3 77.3v-4.6l-.1-13-.1-46.3.2.3h-78.5l.3-.3v64l-.3-.3 56.7.1a232584 232584 0 0 0 20.3.1h1.5-1.4a18566.1 18566.1 0 0 0-20.3.1l-56.8.2h-.2V13.2h78.9v.2l-.1 46.5v13a2160.9 2160.9 0 0 0-.1 4.4Z" fill="#DFDFDF"/><path d="M572.9 23s-17.7.2-39.6.2c-21.8 0-39.5-.1-39.5-.3 0-.1 17.7-.3 39.5-.3 21.9 0 39.6.2 39.6.3Z" fill="#DFDFDF"/><path d="M500.2 18.2a1 1 0 1 1-2.1 0 1 1 0 0 1 2.1 0Z" fill="#DFDFDF"/><path d="M504 18.2a1 1 0 1 1-2 0 1 1 0 0 1 2 0Z" fill="#DFDFDF"/><path d="M508 18.2a1 1 0 1 1-2.2 0 1 1 0 0 1 2.1 0Z" fill="#DFDFDF"/><path d="M420.6 117.9H239V44.2h181.5V118Z" fill="white"/><path d="M420.6 117.9v-5.1l-.1-14.7-.1-53.9.2.2-181.5.1.3-.3V118l-.3-.3 130 .2h50.6l.9.1H407a657574.7 657574.7 0 0 1-168 .3h-.3V44h182v.2l-.2 54V118Z" fill="#DFDFDF"/><path d="M239.3 54.2c0-.2 40.5-.3 90.6-.3 50 0 90.6.1 90.6.3 0 .1-40.6.3-90.6.3-50 0-90.6-.2-90.6-.3Z" fill="#DFDFDF"/><path d="M246.9 49.7a1.3 1.3 0 1 1-2.7 0 1.3 1.3 0 0 1 2.7 0Z" fill="#EBEBEB" fill-opacity=".3"/><path d="M251.4 49.7a1.3 1.3 0 1 1-2.7 0 1.3 1.3 0 0 1 2.7 0Z" fill="#EBEBEB" fill-opacity=".3"/><path d="M255.8 49.7a1.3 1.3 0 1 1-2.6 0 1.3 1.3 0 0 1 2.6 0Z" fill="#EBEBEB" fill-opacity=".3"/><path d="M298.3 110h-43.8V66.2h43.8V110Z" fill="#DFDFDF"/><path d="M408 77.9c0 .1-22.6.3-50.4.3-27.8 0-50.4-.2-50.4-.3 0-.2 22.6-.3 50.4-.3 27.8 0 50.4.1 50.4.3Z" fill="#DFDFDF"/><path d="M408 86.8c0 .2-22.6.3-50.4.3-27.8 0-50.4-.1-50.4-.3 0-.1 22.6-.3 50.4-.3 27.8 0 50.4.2 50.4.3Z" fill="#DFDFDF"/><path d="M372.1 95.7h-.7l-1.8.1-7 .1-23 .1h-22.9l-7-.2h-2.5l.7-.1h1.9l7-.2h45.9l6.9.1h1.8l.7.1Z" fill="#DFDFDF"/><path d="M704.5 649.9c0 .2-154.3.4-344.6.4s-344.5-.2-344.5-.4c0-.3 154.2-.4 344.5-.4s344.6.1 344.6.4Z" fill="#263138"/><path d="M646.2 347.8H429.5V171.5h216.7v176.3Z" fill="#DFDFDF"/><path d="M630.8 359H414V182.7h216.7V359Z" fill="#EBEBEB"/><path d="M615.3 376H393V195h222.4v181Z" fill="white"/><path d="M615.3 376v-13l-.1-36.7L615 195l.3.3H393l.4-.3v181l-.4-.3 160.7.1 45.5.1h12a8194.2 8194.2 0 0 1 4.2.1h-4l-12 .1-45.4.1-161 .2h-.3V194.6h222.9v.4l-.2 131.5v36.7l-.1 9.6v3.2Z" fill="#263138"/><path d="m420 221.1-2.4 1 2.4.8v.9l-3.4-1.3v-1l3.4-1.3v1Z" fill="#445964"/><path d="M425.7 219.5v5h-1.2v-2h-2.3v2h-1.1v-5h1.1v2h2.3v-2h1.2Z" fill="#445964"/><path d="M427.9 220.4h-1.6v-.9h4.4v1H429v4h-1v-4Z" fill="#445964"/><path d="M435.8 224.5v-3l-1.4 2.5h-.6l-1.4-2.4v3h-1.1v-5.1h1l1.8 3.1 1.9-3.1h1v5h-1.2Z" fill="#445964"/><path d="M438.1 219.5h1.2v4h2.5v1H438v-5Z" fill="#445964"/><path d="M445.7 221.5v1l-3.4 1.3v-1l2.4-.8-2.4-.9v-.9l3.4 1.3Z" fill="#445964"/><path d="m418 358.4-2.4 1 2.4.8v.9l-3.4-1.3v-1l3.4-1.3v1Z" fill="#E8505B"/><path d="M420.6 355.8h1l-2.4 6.7h-1l2.4-6.7Z" fill="#E8505B"/><path d="M426.4 356.8v5h-1.1v-2H423v2h-1.2v-5h1.2v2h2.3v-2h1.1Z" fill="#E8505B"/><path d="M428.7 357.7H427v-.9h4.3v1h-1.6v4h-1.1v-4Z" fill="#E8505B"/><path d="M436.6 361.8v-3l-1.5 2.5h-.5l-1.5-2.4v3h-1v-5.1h1l1.8 3.1 1.8-3.1h1v5h-1Z" fill="#E8505B"/><path d="M438.9 356.8h1.2v4h2.5v1h-3.7v-5Z" fill="#E8505B"/><path d="M446.5 358.8v1L443 361v-1l2.4-.8-2.4-.9v-.9l3.4 1.3Z" fill="#E8505B"/><path d="m435.8 234.9-2.6 1 2.6 1v.5l-3.2-1.2v-.7l3.2-1.2v.6Z" fill="black"/><path d="M441.3 233.3v5h-.7v-2.2h-2.9v2.3h-.7v-5h.7v2h3v-2h.6Z" fill="black"/><path d="M446.5 237.7v.7h-3.7v-5h3.6v.6h-2.9v1.5h2.6v.6h-2.6v1.6h3Z" fill="black"/><path d="M450.8 237.1h-2.6l-.6 1.3h-.7l2.2-5h.7l2.3 5h-.7l-.6-1.3Zm-.2-.6-1.1-2.4-1 2.4h2Z" fill="black"/><path d="M452.9 233.3h2c1.7 0 2.8 1 2.8 2.5s-1.1 2.6-2.7 2.6h-2.1v-5Zm2 4.4c1.3 0 2-.7 2-1.9 0-1-.7-1.8-2-1.8h-1.3v3.7h1.3Z" fill="black"/><path d="M461.7 235.5v.7l-3.2 1.2v-.6l2.6-1-2.6-1v-.5l3.2 1.2Z" fill="black"/><path d="m435.8 252-2.6 1 2.6 1v.6l-3.2-1.3v-.6l3.2-1.3v.6Z" fill="black"/><path d="M438 251.1h-1.7v-.6h4.1v.6h-1.7v4.4h-.7v-4.4Z" fill="black"/><path d="M441.2 250.5h.7v5h-.7v-5Z" fill="black"/><path d="M444.4 251.1h-1.7v-.6h4.2v.6H445v4.4h-.7v-4.4Z" fill="black"/><path d="M447.6 250.5h.8v4.4h2.7v.6h-3.5v-5Z" fill="black"/><path d="M455.5 255v.5H452v-5h3.5v.6h-2.8v1.6h2.5v.6h-2.5v1.6h3Z" fill="black"/><path d="M459.6 252.7v.6l-3.2 1.3v-.6l2.6-1-2.6-1v-.6l3.2 1.3Z" fill="black"/><path d="M462.8 250.5h.7v4.4h2.7v.6h-3.4v-5Z" fill="black"/><path d="M466.5 253.6c0-1.1.9-1.9 2-1.9 1.2 0 2 .8 2 2a2 2 0 0 1-2 1.9 2 2 0 0 1-2-2Zm3.3 0c0-.8-.5-1.3-1.3-1.3-.7 0-1.3.5-1.3 1.3s.6 1.4 1.3 1.4c.8 0 1.3-.6 1.3-1.4Z" fill="black"/><path d="M473.5 251.7v.7h-.2c-.7 0-1.2.4-1.2 1.2v2h-.7v-3.9h.7v.7c.3-.5.7-.7 1.4-.7Z" fill="black"/><path d="M477.7 253.9h-3c0 .6.6 1 1.3 1 .5 0 .8 0 1.1-.4l.4.5a2 2 0 0 1-1.5.6c-1.2 0-2-.8-2-2 0-1 .8-1.9 1.9-1.9 1 0 1.8.8 1.8 2v.2Zm-3-.5h2.4c-.1-.7-.6-1.1-1.2-1.1-.7 0-1.2.4-1.3 1Z" fill="black"/><path d="M485 253.3v2.2h-.7v-2c0-.8-.4-1.2-1-1.2-.7 0-1.1.5-1.1 1.3v2h-.7v-2.2c0-.7-.4-1-1-1-.7 0-1.1.4-1.1 1.2v2h-.7v-3.9h.6v.6c.3-.4.8-.6 1.4-.6.5 0 1 .2 1.3.7.3-.4.8-.7 1.4-.7 1 0 1.6.5 1.6 1.6Z" fill="black"/><path d="M488 250.6c0-.3.3-.5.5-.5.3 0 .5.2.5.4 0 .3-.2.5-.5.5a.4.4 0 0 1-.4-.4Zm.2 1.1h.7v3.8h-.7v-3.8Z" fill="black"/><path d="M494.1 253.6c0 1.2-.8 2-1.9 2-.5 0-1-.2-1.3-.6v2h-.7v-5.3h.6v.6c.3-.4.8-.6 1.4-.6a2 2 0 0 1 2 2Zm-.7 0c0-.8-.5-1.3-1.3-1.3-.7 0-1.2.5-1.2 1.3s.5 1.4 1.2 1.4c.8 0 1.3-.6 1.3-1.4Z" fill="black"/><path d="m494.6 255.1.3-.5c.3.2.8.4 1.3.4.6 0 1-.2 1-.5 0-.9-2.5-.1-2.5-1.7 0-.6.6-1.1 1.6-1.1.5 0 1 .1 1.4.3l-.3.6a2 2 0 0 0-1.1-.3c-.6 0-1 .2-1 .5 0 1 2.5.2 2.5 1.6 0 .7-.6 1.2-1.6 1.2-.7 0-1.3-.2-1.6-.5Z" fill="black"/><path d="M502.2 251.7v3.8h-.7v-.5c-.2.4-.7.6-1.2.6-1 0-1.7-.6-1.7-1.7v-2.2h.7v2.1c0 .8.4 1.2 1 1.2.8 0 1.2-.5 1.2-1.3v-2h.7Z" fill="black"/><path d="M509.8 253.3v2.2h-.7v-2c0-.8-.3-1.2-1-1.2-.6 0-1 .5-1 1.3v2h-.8v-2.2c0-.7-.3-1-1-1s-1.1.4-1.1 1.2v2h-.7v-3.9h.7v.6c.2-.4.7-.6 1.3-.6.6 0 1 .2 1.3.7.3-.4.8-.7 1.5-.7.9 0 1.5.5 1.5 1.6Z" fill="black"/><path d="m516 252-2.5 1 2.5 1v.6l-3.2-1.3v-.6l3.2-1.3v.6Z" fill="black"/><path d="M518.7 249.5h.6l-2.4 6.7h-.6l2.4-6.7Z" fill="black"/><path d="M521 251.1h-1.7v-.6h4.1v.6h-1.7v4.4h-.7v-4.4Z" fill="black"/><path d="M524.2 250.5h.7v5h-.7v-5Z" fill="black"/><path d="M527.4 251.1h-1.7v-.6h4.2v.6H528v4.4h-.7v-4.4Z" fill="black"/><path d="M530.6 250.5h.8v4.4h2.7v.6h-3.5v-5Z" fill="black"/><path d="M538.5 255v.5H535v-5h3.5v.6h-2.8v1.6h2.5v.6h-2.5v1.6h3Z" fill="black"/><path d="M542.6 252.7v.6l-3.2 1.3v-.6l2.6-1-2.6-1v-.6l3.2 1.3Z" fill="black"/><path d="m435.8 269.2-2.6 1 2.6 1v.6l-3.2-1.3v-.6l3.2-1.3v.6Z" fill="black"/><path d="M438.4 266.7h.6l-2.3 6.7h-.6l2.3-6.7Z" fill="black"/><path d="M443.8 267.7v5h-.7v-2.2h-2.9v2.2h-.7v-5h.7v2.2h3v-2.2h.6Z" fill="black"/><path d="M449 272v.7h-3.7v-5h3.6v.6H446v1.6h2.5v.6H446v1.6h2.9Z" fill="black"/><path d="M453.3 271.5h-2.6l-.6 1.2h-.7l2.3-5h.7l2.3 5h-.8l-.6-1.2Zm-.2-.6-1-2.5-1.2 2.5h2.2Z" fill="black"/><path d="M455.4 267.7h2.1c1.6 0 2.7 1 2.7 2.5s-1 2.5-2.7 2.5h-2.1v-5Zm2 4.4c1.3 0 2.1-.8 2.1-1.9 0-1.1-.8-1.9-2-1.9H456v3.8h1.4Z" fill="black"/><path d="M464.3 269.9v.6l-3.3 1.3v-.6l2.6-1-2.6-1v-.6l3.3 1.3Z" fill="black"/><path d="m422.5 284.1-2.6 1 2.6 1v.6l-3.3-1.3v-.6l3.3-1.3v.6Z" fill="black"/><path d="M428 286.3c0 .8-.6 1.3-2 1.3h-2.3v-5h2.2c1.2 0 1.8.5 1.8 1.3 0 .5-.2 1-.6 1.1.5.2 1 .6 1 1.3Zm-3.6-3.1v1.6h1.5c.7 0 1.1-.3 1.1-.8s-.4-.8-1.1-.8h-1.5Zm2.9 3c0-.6-.4-.8-1.2-.8h-1.7v1.6h1.7c.8 0 1.2-.2 1.2-.8Z" fill="black"/><path d="M428.7 285.1c0-1.5 1.1-2.6 2.7-2.6 1.5 0 2.6 1.1 2.6 2.6s-1 2.6-2.6 2.6-2.7-1.1-2.7-2.6Zm4.6 0a2 2 0 0 0-2-2 2 2 0 0 0 .1 4c1 0 2-.9 2-2Z" fill="black"/><path d="M435.1 282.6h2.1c1.7 0 2.8 1 2.8 2.5s-1.1 2.5-2.8 2.5h-2v-5Zm2.1 4.4c1.2 0 2-.8 2-1.9 0-1.1-.8-1.9-2-1.9H436v3.8h1.3Z" fill="black"/><path d="M442.8 285.9v1.7h-.8V286l-2-3.3h.8l1.6 2.6 1.6-2.6h.8l-2 3.3Z" fill="black"/><path d="M448.4 284.8v.6l-3.2 1.3v-.6l2.6-1-2.6-1v-.6l3.2 1.3Z" fill="black"/><path d="m422.5 301.3-2.6 1 2.6 1v.6l-3.3-1.3v-.6l3.3-1.3v.6Z" fill="black"/><path d="M428 299.8v5h-.7v-2.2h-2.9v2.2h-.7v-5h.7v2.1h2.9v-2.1h.7Z" fill="black"/><path d="M430.7 299.8v5h-.8v-4.4h-1v-.6h1.8Z" fill="black"/><path d="M435.1 302v.6l-3.2 1.3v-.6l2.5-1-2.5-1v-.6l3.2 1.3Z" fill="black"/><path d="M438.3 299.8h.6v4.5h2.8v.5h-3.4v-5Z" fill="black"/><path d="M442 303c0-1.2.8-2 2-2 1 0 1.8.8 1.8 2 0 1-.8 1.8-1.9 1.8-1 0-1.9-.8-1.9-1.9Zm3.3 0c0-1-.6-1.6-1.4-1.6-.8 0-1.4.6-1.4 1.5s.6 1.5 1.4 1.5c.8 0 1.4-.6 1.4-1.5Z" fill="black"/><path d="M448.8 301v.5h-.2c-.7 0-1.2.5-1.2 1.4v1.9h-.5V301h.5v.8c.2-.5.7-.8 1.4-.8Z" fill="black"/><path d="M453 303h-3.2c0 .9.6 1.4 1.5 1.4.4 0 .8-.2 1.1-.5l.3.3c-.3.4-.9.6-1.5.6-1.1 0-2-.8-2-1.9 0-1.1.8-1.9 2-1.9 1 0 1.7.8 1.7 2Zm-3.2-.3h2.7c-.1-.7-.7-1.3-1.4-1.3s-1.3.6-1.3 1.3Z" fill="black"/><path d="M460.2 302.6v2.2h-.5v-2.1c0-.8-.4-1.2-1-1.2-.9 0-1.4.5-1.4 1.3v2h-.5v-2.1c0-.8-.4-1.2-1-1.2-.8 0-1.3.5-1.3 1.3v2h-.5V301h.5v.7c.2-.4.7-.7 1.3-.7.7 0 1.2.3 1.4.8.3-.5.8-.8 1.5-.8.9 0 1.5.5 1.5 1.6Z" fill="black"/><path d="M463.3 299.8c0-.2.2-.3.4-.3a.4.4 0 1 1 0 .7.4.4 0 0 1-.4-.4Zm.2 1.2h.5v3.8h-.5V301Z" fill="black"/><path d="M469.2 303c0 1-.8 1.8-1.9 1.8-.6 0-1.1-.2-1.4-.7v2h-.5v-5h.5v.7c.3-.5.8-.8 1.4-.8 1.1 0 1.9.8 1.9 2Zm-.5 0c0-1-.6-1.6-1.4-1.6-.8 0-1.4.6-1.4 1.5s.6 1.5 1.4 1.5c.8 0 1.4-.6 1.4-1.5Z" fill="black"/><path d="m469.7 304.4.2-.4c.3.2.9.4 1.4.4.7 0 1-.3 1-.6 0-1-2.4-.2-2.4-1.7 0-.6.5-1.1 1.4-1.1.5 0 1 .1 1.4.4l-.2.4a2 2 0 0 0-1.2-.4c-.6 0-1 .3-1 .7 0 1 2.5.2 2.5 1.7 0 .6-.6 1-1.6 1a3 3 0 0 1-1.5-.4Z" fill="black"/><path d="M477.1 301v3.8h-.4v-.7c-.3.5-.8.7-1.4.7-1 0-1.6-.5-1.6-1.6V301h.5v2.2c0 .8.4 1.2 1.1 1.2.8 0 1.3-.5 1.3-1.4v-2h.5Z" fill="black"/><path d="M484.8 302.6v2.2h-.5v-2.1c0-.8-.4-1.2-1.1-1.2-.8 0-1.3.5-1.3 1.3v2h-.5v-2.1c0-.8-.4-1.2-1-1.2-.8 0-1.3.5-1.3 1.3v2h-.5V301h.4v.7c.3-.4.8-.7 1.4-.7.7 0 1.1.3 1.4.8.2-.5.8-.8 1.5-.8.9 0 1.5.5 1.5 1.6Z" fill="black"/><path d="M491.5 299.5v5.3h-.5v-.7c-.3.5-.8.7-1.5.7-1 0-1.8-.7-1.8-1.9 0-1.1.8-1.9 1.8-1.9.6 0 1.2.3 1.5.8v-2.3h.5Zm-.5 3.4c0-.9-.6-1.5-1.4-1.5-.8 0-1.4.6-1.4 1.5s.6 1.5 1.4 1.5c.8 0 1.4-.6 1.4-1.5Z" fill="black"/><path d="M492.5 303c0-1.2.8-2 2-2 1 0 1.9.8 1.9 2 0 1-.9 1.8-2 1.8-1 0-1.9-.8-1.9-1.9Zm3.3 0c0-1-.6-1.6-1.4-1.6-.8 0-1.4.6-1.4 1.5s.6 1.5 1.4 1.5c.8 0 1.4-.6 1.4-1.5Z" fill="black"/><path d="M497.4 299.5h.5v5.3h-.5v-5.3Z" fill="black"/><path d="M499 303c0-1.2.8-2 1.9-2 1 0 1.9.8 1.9 2 0 1-.8 1.8-2 1.8-1 0-1.9-.8-1.9-1.9Zm3.3 0c0-1-.6-1.6-1.4-1.6-.8 0-1.4.6-1.4 1.5s.6 1.5 1.4 1.5c.8 0 1.4-.6 1.4-1.5Z" fill="black"/><path d="M505.7 301v.5h-.1c-.8 0-1.3.5-1.3 1.4v1.9h-.5V301h.5v.8c.2-.5.7-.8 1.4-.8Z" fill="black"/><path d="m508 304.4.3-.4c.3.2.8.4 1.3.4.7 0 1-.3 1-.6 0-1-2.4-.2-2.4-1.7 0-.6.5-1.1 1.5-1.1.4 0 1 .1 1.3.4l-.2.4a2 2 0 0 0-1.1-.4c-.7 0-1 .3-1 .7 0 1 2.4.2 2.4 1.7 0 .6-.5 1-1.5 1-.7 0-1.3-.2-1.6-.4Z" fill="black"/><path d="M512 299.8c0-.2.1-.3.3-.3a.4.4 0 1 1 0 .7.4.4 0 0 1-.4-.4Zm0 1.2h.6v3.8h-.5V301Z" fill="black"/><path d="M516 304.6c-.2.2-.5.2-.8.2-.7 0-1.1-.4-1.1-1v-2.3h-.7v-.5h.7v-.8h.5v.8h1.1v.5h-1.1v2.2c0 .5.2.7.6.7.2 0 .5 0 .6-.2l.2.4Z" fill="black"/><path d="M521.6 302.5v2.3h-.5v-.6c-.2.4-.6.6-1.3.6-.8 0-1.3-.4-1.3-1s.3-1.1 1.4-1.1h1.2v-.3c0-.6-.4-1-1-1a2 2 0 0 0-1.3.5l-.2-.4c.3-.3.9-.5 1.5-.5 1 0 1.5.5 1.5 1.5Zm-.5 1.2v-.6H520c-.7 0-1 .2-1 .6 0 .5.4.7 1 .7s1-.2 1.2-.7Z" fill="black"/><path d="M529.2 302.6v2.2h-.5v-2.1c0-.8-.4-1.2-1-1.2-.8 0-1.3.5-1.3 1.3v2h-.5v-2.1c0-.8-.4-1.2-1.1-1.2-.8 0-1.3.5-1.3 1.3v2h-.5V301h.5v.7c.3-.4.7-.7 1.4-.7.6 0 1 .3 1.3.8.3-.5.8-.8 1.5-.8 1 0 1.5.5 1.5 1.6Z" fill="black"/><path d="M533.9 303h-3.2c.1.9.7 1.4 1.5 1.4.5 0 .9-.2 1.2-.5l.3.3a2 2 0 0 1-1.5.6c-1.2 0-2-.8-2-1.9 0-1.1.8-1.9 1.9-1.9 1 0 1.8.8 1.8 2Zm-3.2-.3h2.7c0-.7-.6-1.3-1.3-1.3-.8 0-1.3.6-1.4 1.3Z" fill="black"/><path d="M537 304.6c-.3.2-.6.2-.9.2-.7 0-1-.4-1-1v-2.3h-.7v-.5h.6v-.8h.5v.8h1.2v.5h-1.2v2.2c0 .5.3.7.7.7.2 0 .4 0 .5-.2l.2.4Z" fill="black"/><path d="m538.4 304.4-.1.5-.3 1h-.4l.3-1c-.2-.1-.3-.3-.3-.5s.2-.3.4-.3.4.1.4.3Z" fill="black"/><path d="M541 303c0-1.2.8-2 1.9-2 .6 0 1.2.3 1.5.8l-.4.2c-.3-.4-.7-.6-1.1-.6-.8 0-1.4.6-1.4 1.5 0 1 .6 1.5 1.4 1.5.4 0 .8-.2 1-.6l.5.3c-.3.5-.9.7-1.5.7-1.1 0-2-.8-2-1.9Z" fill="black"/><path d="M545 303c0-1.2.7-2 1.8-2s2 .8 2 2c0 1-.9 1.8-2 1.8-1 0-1.9-.8-1.9-1.9Zm3.2 0c0-1-.6-1.6-1.4-1.6-.8 0-1.4.6-1.4 1.5s.6 1.5 1.4 1.5c.8 0 1.4-.6 1.4-1.5Z" fill="black"/><path d="M553.3 302.6v2.2h-.6v-2.1c0-.8-.4-1.2-1-1.2-.9 0-1.4.5-1.4 1.3v2h-.5V301h.5v.7c.2-.4.8-.7 1.4-.7 1 0 1.6.5 1.6 1.6Z" fill="black"/><path d="m554.1 304.4.2-.4c.3.2.8.4 1.4.4.7 0 1-.3 1-.6 0-1-2.5-.2-2.5-1.7 0-.6.6-1.1 1.5-1.1.5 0 1 .1 1.4.4l-.3.4a2 2 0 0 0-1-.4c-.7 0-1 .3-1 .7 0 1 2.4.2 2.4 1.7 0 .6-.6 1-1.6 1a3 3 0 0 1-1.5-.4Z" fill="black"/><path d="M561.4 303h-3.1c0 .9.6 1.4 1.4 1.4.5 0 1-.2 1.2-.5l.3.3c-.3.4-.9.6-1.5.6-1.1 0-2-.8-2-1.9 0-1.1.8-1.9 1.9-1.9 1 0 1.8.8 1.8 2Zm-3.1-.3h2.6c0-.7-.6-1.3-1.3-1.3-.7 0-1.3.6-1.3 1.3Z" fill="black"/><path d="M562 303c0-1.2.9-2 2-2 .7 0 1.2.3 1.5.8l-.4.2c-.2-.4-.6-.6-1-.6-.9 0-1.5.6-1.5 1.5 0 1 .6 1.5 1.4 1.5.5 0 .9-.2 1.1-.6l.4.3c-.3.5-.8.7-1.5.7-1.1 0-2-.8-2-1.9Z" fill="black"/><path d="M568.5 304.6c-.2.2-.5.2-.8.2-.7 0-1-.4-1-1v-2.3h-.8v-.5h.7v-.8h.5v.8h1.2v.5H567v2.2c0 .5.3.7.7.7.2 0 .4 0 .5-.2l.2.4Z" fill="black"/><path d="M572.6 303h-3.2c.1.9.7 1.4 1.5 1.4.5 0 .9-.2 1.2-.5l.3.3a2 2 0 0 1-1.5.6c-1.2 0-2-.8-2-1.9 0-1.1.8-1.9 1.9-1.9 1 0 1.8.8 1.8 2Zm-3.2-.3h2.7c0-.7-.6-1.3-1.3-1.3-.8 0-1.3.6-1.4 1.3Z" fill="black"/><path d="M575.6 304.6c-.2.2-.5.2-.8.2-.7 0-1-.4-1-1v-2.3h-.8v-.5h.7v-.8h.5v.8h1.2v.5h-1.2v2.2c0 .5.3.7.7.7.2 0 .4 0 .5-.2l.2.4Z" fill="black"/><path d="M580 301v3.8h-.5v-.7c-.3.5-.8.7-1.4.7-1 0-1.6-.5-1.6-1.6V301h.5v2.2c0 .8.4 1.2 1.2 1.2.7 0 1.2-.5 1.2-1.4v-2h.5Z" fill="black"/><path d="M584.7 303h-3.2c0 .9.7 1.4 1.5 1.4.4 0 .8-.2 1.1-.5l.3.3c-.3.4-.8.6-1.4.6-1.2 0-2-.8-2-1.9 0-1.1.8-1.9 1.8-1.9s1.9.8 1.9 2Zm-3.2-.3h2.7c0-.7-.6-1.3-1.4-1.3-.7 0-1.2.6-1.3 1.3Z" fill="black"/><path d="M587.6 301v.5h-.1c-.8 0-1.3.5-1.3 1.4v1.9h-.5V301h.5v.8c.2-.5.7-.8 1.4-.8Z" fill="black"/><path d="M422.3 311v2.4h-.5v-.6c-.2.4-.6.6-1.3.6-.8 0-1.3-.4-1.3-1s.3-1.1 1.4-1.1h1.2v-.3c0-.6-.4-1-1-1a2 2 0 0 0-1.3.5l-.2-.4c.3-.3.9-.5 1.5-.5 1 0 1.5.5 1.5 1.5Zm-.5 1.3v-.7h-1.2c-.7 0-1 .3-1 .7 0 .5.4.7 1 .7s1-.2 1.2-.7Z" fill="black"/><path d="M427.2 308v5.4h-.5v-.8c-.3.6-.9.8-1.5.8-1 0-1.9-.8-1.9-1.9 0-1.1.8-2 2-2 .5 0 1 .4 1.4.8v-2.2h.5Zm-.5 3.5c0-.9-.6-1.5-1.4-1.5-.8 0-1.4.6-1.4 1.5s.6 1.5 1.4 1.5c.8 0 1.4-.6 1.4-1.5Z" fill="black"/><path d="M428.5 308.4c0-.2.1-.3.3-.3a.4.4 0 1 1 0 .7.4.4 0 0 1-.3-.4Zm0 1.2h.6v3.8h-.5v-3.8Z" fill="black"/><path d="M434.3 311.5c0 1.2-.8 2-1.9 2-.6 0-1-.3-1.4-.8v2h-.5v-5h.5v.7c.3-.5.8-.8 1.4-.8a2 2 0 0 1 2 2Zm-.5 0c0-.9-.6-1.5-1.4-1.5-.8 0-1.4.6-1.4 1.5s.6 1.5 1.4 1.5c.8 0 1.4-.6 1.4-1.5Z" fill="black"/><path d="M435.2 308.4c0-.2.2-.3.4-.3s.4.1.4.3c0 .2-.2.4-.4.4a.4.4 0 0 1-.4-.4Zm.2 1.2h.5v3.8h-.5v-3.8Z" fill="black"/><path d="m436.8 313 .2-.4c.3.2.8.4 1.3.4.8 0 1-.3 1-.6 0-1-2.4-.2-2.4-1.7 0-.6.5-1.1 1.5-1.1.5 0 1 .1 1.3.3l-.2.5a2 2 0 0 0-1.1-.4c-.7 0-1 .3-1 .7 0 1 2.5.2 2.5 1.7 0 .6-.6 1-1.6 1a3 3 0 0 1-1.5-.4Z" fill="black"/><path d="M440.4 311.5c0-1.1.8-2 2-2 .6 0 1.1.3 1.4.8l-.3.3c-.3-.4-.7-.6-1.1-.6-.9 0-1.5.6-1.5 1.5s.6 1.5 1.5 1.5c.4 0 .8-.2 1-.6l.4.3c-.3.5-.8.7-1.4.7-1.2 0-2-.8-2-1.9Z" fill="black"/><path d="M444.7 308.4c0-.2.2-.3.4-.3a.4.4 0 1 1 0 .7.4.4 0 0 1-.4-.4Zm.1 1.2h.5v3.8h-.5v-3.8Z" fill="black"/><path d="M450.2 311.2v2.2h-.5v-2.1c0-.8-.4-1.2-1.1-1.2-.8 0-1.3.5-1.3 1.3v2h-.5v-3.8h.4v.7c.3-.4.8-.7 1.5-.7.9 0 1.5.5 1.5 1.6Z" fill="black"/><path d="M455.1 309.6v3.3c0 1.3-.6 2-1.9 2-.7 0-1.3-.3-1.7-.7l.2-.3c.4.3 1 .5 1.5.5 1 0 1.4-.5 1.4-1.4v-.5c-.3.5-.9.7-1.5.7-1 0-1.9-.7-1.9-1.8 0-1 .9-1.8 2-1.8.6 0 1.1.3 1.4.7v-.7h.5Zm-.5 1.8c0-.8-.6-1.4-1.4-1.4-.9 0-1.4.6-1.4 1.4 0 .8.5 1.4 1.4 1.4.8 0 1.4-.6 1.4-1.4Z" fill="black"/><path d="M461.7 311.7h-3.2c.1.8.7 1.3 1.5 1.3.5 0 .9-.2 1.2-.5l.3.3a2 2 0 0 1-1.5.6c-1.2 0-2-.8-2-1.9 0-1.1.8-2 1.9-2 1 0 1.8.9 1.8 2v.2Zm-3.2-.4h2.7c0-.8-.6-1.3-1.3-1.3-.8 0-1.3.5-1.4 1.3Z" fill="black"/><path d="M462.7 308h.5v5.4h-.5V308Z" fill="black"/><path d="M464.5 308.4c0-.2.2-.3.4-.3s.4.1.4.3c0 .2-.2.4-.4.4a.4.4 0 0 1-.4-.4Zm.2 1.2h.5v3.8h-.5v-3.8Z" fill="black"/><path d="m468.6 313.2-.8.2c-.7 0-1.1-.4-1.1-1V310h-.7v-.5h.7v-.8h.5v.8h1.1v.5h-1.1v2.2c0 .4.2.7.6.7.2 0 .5 0 .6-.2l.2.4Z" fill="black"/><path d="M470 313v.4l-.4 1h-.3l.2-1c-.1 0-.3-.2-.3-.4s.2-.4.4-.4.4.2.4.4Z" fill="black"/><path d="m472.4 313 .3-.4c.3.2.8.4 1.3.4.7 0 1-.3 1-.6 0-1-2.4-.2-2.4-1.7 0-.6.5-1.1 1.5-1.1.5 0 1 .1 1.3.3l-.2.5a2 2 0 0 0-1.1-.4c-.7 0-1 .3-1 .7 0 1 2.4.2 2.4 1.7 0 .6-.5 1-1.5 1-.6 0-1.2-.2-1.6-.4Z" fill="black"/><path d="M479.8 311.7h-3.2c0 .8.7 1.3 1.5 1.3.4 0 .9-.2 1.1-.5l.3.3c-.3.4-.8.6-1.4.6-1.2 0-2-.8-2-1.9 0-1.1.8-2 1.8-2s1.9.9 1.9 2v.2Zm-3.2-.4h2.7c0-.8-.6-1.3-1.4-1.3-.7 0-1.2.5-1.3 1.3Z" fill="black"/><path d="M484.2 308v5.4h-.4v-.8c-.4.6-.9.8-1.5.8-1 0-1.9-.8-1.9-1.9 0-1.1.8-2 1.9-2 .6 0 1.1.4 1.4.8v-2.2h.5Zm-.5 3.5c0-.9-.6-1.5-1.4-1.5-.8 0-1.4.6-1.4 1.5s.6 1.5 1.4 1.5c.8 0 1.4-.6 1.4-1.5Z" fill="black"/><path d="M491 308v5.4h-.5v-.8c-.3.6-.8.8-1.5.8-1 0-1.8-.8-1.8-1.9 0-1.1.8-2 1.8-2 .6 0 1.1.4 1.5.8v-2.2h.5Zm-.5 3.5c0-.9-.6-1.5-1.4-1.5-.8 0-1.4.6-1.4 1.5s.6 1.5 1.4 1.5c.8 0 1.4-.6 1.4-1.5Z" fill="black"/><path d="M492.3 308.4c0-.2.1-.3.3-.3a.4.4 0 1 1 0 .7.4.4 0 0 1-.3-.4Zm0 1.2h.6v3.8h-.5v-3.8Z" fill="black"/><path d="M497.2 311v2.4h-.5v-.6c-.3.4-.7.6-1.3.6-.9 0-1.4-.4-1.4-1s.4-1.1 1.5-1.1h1.2v-.3c0-.6-.4-1-1.1-1a2 2 0 0 0-1.3.5l-.2-.4c.4-.3 1-.5 1.5-.5 1 0 1.6.5 1.6 1.5Zm-.5 1.3v-.7h-1.2c-.8 0-1 .3-1 .7 0 .5.4.7 1 .7.5 0 1-.2 1.2-.7Z" fill="black"/><path d="M504.8 311.2v2.2h-.5v-2.1c0-.8-.4-1.2-1.1-1.2-.8 0-1.3.5-1.3 1.3v2h-.5v-2.1c0-.8-.4-1.2-1-1.2-.9 0-1.3.5-1.3 1.3v2h-.6v-3.8h.5v.7c.3-.4.8-.7 1.4-.7.6 0 1.1.3 1.4.8.2-.5.8-.8 1.4-.8 1 0 1.6.5 1.6 1.6Z" fill="black"/><path d="m509.1 309.9-2.5 1 2.5 1v.6l-3.2-1.3v-.6l3.2-1.3v.6Z" fill="black"/><path d="M511.8 307.4h.6L510 314h-.6l2.4-6.7Z" fill="black"/><path d="M517.2 308.4v5h-.7v-2.2h-2.9v2.2h-.7v-5h.7v2.1h2.9v-2.1h.7Z" fill="black"/><path d="M519.8 308.4v5h-.7V309H518v-.6h1.8Z" fill="black"/><path d="M524.3 310.6v.6l-3.2 1.3v-.6l2.5-1-2.5-1v-.6l3.2 1.3Z" fill="black"/><path d="m422.5 327-2.6 1 2.6 1v.6l-3.3-1.2v-.6l3.3-1.3v.6Z" fill="black"/><path d="M427.7 327.3c0 1-.7 1.8-2 1.8h-1.3v1.5h-.7v-5h2c1.3 0 2 .6 2 1.7Zm-.7 0c0-.7-.5-1.1-1.4-1.1h-1.2v2.2h1.2c1 0 1.4-.4 1.4-1.1Z" fill="black"/><path d="M431.8 327.8v.6l-3.2 1.2v-.6l2.5-1-2.5-1v-.5l3.2 1.3Z" fill="black"/><path d="m437.9 327-2.5 1 2.5 1v.6l-3.2-1.2v-.6l3.2-1.3v.6Z" fill="black"/><path d="M439.1 325.6h.7v5h-.7v-5Z" fill="black"/><path d="M446 330.6v-3.7l-1.8 3h-.3l-1.9-3v3.7h-.6v-5h.5l2.1 3.5 2.1-3.5h.6v5h-.7Z" fill="black"/><path d="M451.7 328h.7v2a3 3 0 0 1-2 .6c-1.5 0-2.6-1-2.6-2.5s1.1-2.6 2.7-2.6c.8 0 1.4.3 1.9.8l-.4.4a2 2 0 0 0-1.5-.6c-1.2 0-2 .8-2 2a2 2 0 0 0 2 1.9l1.2-.3V328Z" fill="black"/><path d="m455.2 330 .3-.6c.3.4 1 .6 1.6.6.9 0 1.3-.3 1.3-.8 0-1.2-3-.4-3-2.3 0-.7.5-1.4 1.8-1.4a3 3 0 0 1 1.6.4l-.2.6c-.4-.3-1-.4-1.4-.4-.8 0-1.2.4-1.2.8 0 1.2 3 .5 3 2.3 0 .8-.6 1.4-1.9 1.4a3 3 0 0 1-2-.6Z" fill="black"/><path d="m463.5 330.6-1.1-1.6h-1.6v1.6h-.7v-5h2c1.3 0 2 .6 2 1.7 0 .8-.4 1.3-1 1.6l1.1 1.7h-.7Zm0-3.3c0-.7-.5-1.1-1.5-1.1h-1.2v2.2h1.2c1 0 1.4-.4 1.4-1.1Z" fill="black"/><path d="M464.9 328c0-1.4 1.1-2.5 2.7-2.5.7 0 1.4.3 1.9.8l-.5.4a2 2 0 0 0-3.4 1.4c0 1 .9 1.9 2 1.9.5 0 1-.2 1.4-.6l.5.4c-.5.6-1.2.8-2 .8-1.5 0-2.6-1-2.6-2.5Z" fill="black"/><path d="M470.2 327h3.2v.5h-3.2v-.6Zm0 1.6h3.2v.6h-3.2v-.6Z" fill="black"/><path d="M476.3 325.6h.6v1.9h-.6v-2Zm1.3 0h.6v1.9h-.6v-2Z" fill="black"/><path d="M479.4 325.6h.7v4.3h2.7v.7h-3.4v-5Z" fill="black"/><path d="M483.1 328.7c0-1.2.9-2 2-2 1.2 0 2 .8 2 2a2 2 0 0 1-2 2 2 2 0 0 1-2-2Zm3.3 0c0-.8-.6-1.4-1.3-1.4-.7 0-1.3.6-1.3 1.4 0 .8.6 1.3 1.3 1.3.7 0 1.3-.5 1.3-1.3Z" fill="black"/><path d="M490 326.7v.7c-.8 0-1.3.4-1.3 1.3v1.9h-.7v-3.8h.7v.6c.2-.4.7-.7 1.4-.7Z" fill="black"/><path d="M494.3 328.9h-3c0 .7.6 1.1 1.3 1.1.4 0 .8-.1 1.1-.4l.4.4a2 2 0 0 1-1.5.6c-1.2 0-2-.8-2-2 0-1 .8-1.9 1.8-1.9a2 2 0 0 1 2 2v.2Zm-3-.5h2.4c-.1-.6-.6-1-1.3-1-.6 0-1.1.4-1.2 1Z" fill="black"/><path d="M501.6 328.4v2.2h-.7v-2.1c0-.8-.4-1.1-1-1.1-.7 0-1.1.4-1.1 1.2v2h-.7v-2.1c0-.8-.4-1.1-1-1.1-.7 0-1.1.4-1.1 1.2v2h-.7v-3.8h.6v.5a2 2 0 0 1 1.3-.6c.6 0 1.1.3 1.4.7.3-.4.8-.7 1.4-.7 1 0 1.6.6 1.6 1.7Z" fill="black"/><path d="M504.7 325.6c0-.3.2-.5.4-.5.3 0 .5.2.5.5 0 .2-.2.4-.5.4-.2 0-.4-.1-.4-.4Zm0 1.2h.8v3.8h-.7v-3.8Z" fill="black"/><path d="M510.7 328.7a2 2 0 0 1-2 2c-.4 0-1-.3-1.2-.7v2h-.7v-5.2h.6v.6c.3-.4.8-.7 1.4-.7a2 2 0 0 1 2 2Zm-.7 0c0-.8-.5-1.4-1.3-1.4-.7 0-1.2.6-1.2 1.4 0 .8.5 1.3 1.2 1.3.8 0 1.3-.5 1.3-1.3Z" fill="black"/><path d="m511.2 330.2.3-.6c.3.3.8.4 1.3.4.6 0 .9-.2.9-.5 0-.8-2.4-.1-2.4-1.6 0-.7.6-1.2 1.6-1.2.5 0 1 .2 1.4.4l-.3.5a2 2 0 0 0-1.1-.3c-.6 0-1 .2-1 .5 0 1 2.5.2 2.5 1.7 0 .7-.6 1.1-1.6 1.1-.7 0-1.3-.2-1.6-.4Z" fill="black"/><path d="M518.8 326.8v3.8h-.7v-.6c-.2.4-.7.6-1.3.6-1 0-1.6-.5-1.6-1.6v-2.2h.7v2c0 .8.4 1.2 1 1.2.7 0 1.2-.4 1.2-1.3v-2h.7Z" fill="black"/><path d="M526.4 328.4v2.2h-.7v-2.1c0-.8-.3-1.1-1-1.1-.6 0-1.1.4-1.1 1.2v2h-.7v-2.1c0-.8-.3-1.1-1-1.1s-1.1.4-1.1 1.2v2h-.7v-3.8h.7v.5c.2-.3.7-.6 1.3-.6.6 0 1 .3 1.3.7.3-.4.8-.7 1.5-.7.9 0 1.5.6 1.5 1.7Z" fill="black"/><path d="M527.5 325.6h.6v1.9h-.6v-2Zm1.3 0h.6v1.9h-.6v-2Z" fill="black"/><path d="M533.5 327.8v.6l-3.2 1.2v-.6l2.6-1-2.6-1v-.5l3.2 1.3Z" fill="black"/><path d="m537.7 327-2.6 1 2.6 1v.6l-3.2-1.2v-.6l3.2-1.3v.6Z" fill="black"/><path d="M540.3 324.5h.7l-2.4 6.8h-.6l2.3-6.8Z" fill="black"/><path d="M545.5 327.3c0 1-.8 1.8-2.1 1.8h-1.2v1.5h-.8v-5h2c1.3 0 2 .6 2 1.7Zm-.7 0c0-.7-.5-1.1-1.4-1.1h-1.2v2.2h1.2c.9 0 1.4-.4 1.4-1.1Z" fill="black"/><path d="M549.5 327.8v.6l-3.2 1.2v-.6l2.6-1-2.6-1v-.5l3.2 1.3Z" fill="black"/><path d="m422.5 344.3-2.6 1 2.6 1v.5l-3.3-1.2v-.7l3.3-1.2v.6Z" fill="black"/><path d="M425.1 341.7h.6l-2.3 6.8h-.7l2.4-6.8Z" fill="black"/><path d="M430.5 346.4c0 .9-.6 1.4-1.9 1.4h-2.4v-5h2.3c1.1 0 1.8.4 1.8 1.2 0 .6-.3 1-.7 1.2.6.1 1 .5 1 1.2Zm-3.6-3v1.5h1.5c.7 0 1.1-.3 1.1-.8s-.4-.8-1.1-.8h-1.5Zm3 3c0-.6-.5-.9-1.3-.9h-1.7v1.7h1.7c.8 0 1.2-.3 1.2-.9Z" fill="black"/><path d="M431.2 345.2c0-1.4 1.2-2.5 2.7-2.5 1.5 0 2.7 1 2.7 2.5s-1.2 2.6-2.7 2.6c-1.5 0-2.7-1-2.7-2.6Zm4.6 0c0-1-.8-1.9-1.9-1.9a2 2 0 0 0-2 2c0 1 .9 1.9 2 1.9s2-.8 2-2Z" fill="black"/><path d="M437.7 342.7h2c1.7 0 2.8 1 2.8 2.5s-1.1 2.6-2.7 2.6h-2.1v-5Zm2 4.4c1.3 0 2-.7 2-1.9 0-1-.7-1.8-2-1.8h-1.3v3.7h1.3Z" fill="black"/><path d="M445.3 346v1.8h-.7V346l-2-3.3h.7l1.6 2.7 1.7-2.7h.7l-2 3.3Z" fill="black"/><path d="M451 345v.6l-3.3 1.2v-.6l2.6-1-2.6-1v-.5l3.2 1.2Z" fill="black"/><path d="M615.3 210c0 .3-49.6.4-110.8.4-61.2 0-110.8-.1-110.8-.4 0-.2 49.6-.4 110.8-.4 61.2 0 110.8.2 110.8.4Z" fill="#263138"/><path d="M400.4 202.1a1.4 1.4 0 1 1-2.9 0 1.4 1.4 0 0 1 2.9 0Z" fill="#263138"/><path d="M405.8 202.1a1.4 1.4 0 1 1-2.8 0 1.4 1.4 0 0 1 2.8 0Z" fill="#263138"/><path d="M411.3 202.1a1.4 1.4 0 1 1-2.8 0 1.4 1.4 0 0 1 2.8 0Z" fill="#263138"/><path d="M407.8 377.5c-.2 0-.4-37.6-.4-84 0-46.3.2-83.9.4-83.9s.4 37.6.4 84c0 46.3-.2 84-.4 84Z" fill="#DFDFDF"/><path d="M189 112.2H97.4V46.9H189v65.3Z" fill="#DFDFDF"/><path d="M189.7 56.6c0 .2-20.6.4-46.1.4s-46.2-.2-46.2-.4 20.7-.4 46.2-.4c25.5 0 46.1.2 46.1.4Z" fill="white"/><path d="M104.9 51.8c0 .6-.6 1.1-1.2 1.1-.7 0-1.3-.5-1.3-1 0-.6.6-1.1 1.3-1.1.6 0 1.2.5 1.2 1Z" fill="white"/><path d="M109.4 51.8c0 .6-.6 1.1-1.2 1.1-.7 0-1.3-.5-1.3-1 0-.6.6-1.1 1.3-1.1.6 0 1.2.5 1.2 1Z" fill="white"/><path d="M113.9 51.8c0 .6-.6 1.1-1.2 1.1-.7 0-1.3-.5-1.3-1 0-.6.6-1.1 1.3-1.1.6 0 1.2.5 1.2 1Z" fill="white"/><path d="M678.3 355.4h-82.8v-59h82.8v59Z" fill="#263138"/><path d="M679 305.2c0 .1-18.7.3-41.8.3-23 0-41.7-.2-41.7-.3 0-.1 18.7-.3 41.7-.3 23 0 41.8.2 41.8.3Z" fill="white"/><path d="M602.3 300.9c0 .5-.5 1-1.1 1-.7 0-1.2-.5-1.2-1s.5-1 1.2-1c.6 0 1 .5 1 1Z" fill="white"/><path d="M606.3 300.9c0 .5-.5 1-1 1-.7 0-1.2-.5-1.2-1s.5-1 1.1-1c.6 0 1.1.5 1.1 1Z" fill="white"/><path d="M610.4 300.9c0 .5-.5 1-1.1 1-.6 0-1.1-.5-1.1-1s.5-1 1-1c.7 0 1.2.5 1.2 1Z" fill="white"/><path d="M114.5 339h-61v-43.4h61v43.5Z" fill="#DFDFDF"/><path d="M115 302c0 .2-13.8.2-30.8.2l-30.8-.1c0-.2 13.8-.2 30.8-.2s30.8 0 30.8.2Z" fill="white"/><path d="M58.4 298.9c0 .4-.3.7-.8.7-.4 0-.8-.3-.8-.7 0-.4.4-.7.8-.7.5 0 .8.3.8.7Z" fill="white"/><path d="M61.4 298.9c0 .4-.3.7-.8.7-.4 0-.8-.3-.8-.7 0-.4.4-.7.8-.7.5 0 .8.3.8.7Z" fill="white"/><path d="M64.4 298.9c0 .4-.3.7-.8.7-.4 0-.8-.3-.8-.7 0-.4.4-.7.8-.7.5 0 .8.3.8.7Z" fill="white"/><path d="M496.3 157.8v-1.3l-.1-3.4v-13.3L496 92l.3.3-101.9.1.4-.4v65.8l-.4-.4 73.3.2a229904.5 229904.5 0 0 0 21.2.2l-21 .1-73.5.2h-.4V91.6h102.6v.4l-.2 48v16.6l-.1 1.2Z" fill="#263138"/><path d="M496.3 101.8c0 .2-22.8.4-51 .4-28.1 0-51-.2-51-.4 0-.3 22.9-.4 51-.4 28.2 0 51 .1 51 .4Z" fill="#263138"/><path d="M402 97c0 .6-.6 1-1.3 1-.7 0-1.3-.4-1.3-1s.6-1.1 1.3-1.1c.7 0 1.2.5 1.2 1Z" fill="#263138"/><path d="M406.5 97c0 .6-.6 1-1.3 1-.7 0-1.2-.4-1.2-1s.5-1.1 1.2-1.1 1.3.5 1.3 1Z" fill="#263138"/><path d="M411 97c0 .6-.6 1-1.3 1-.6 0-1.2-.4-1.2-1s.6-1.1 1.2-1.1c.7 0 1.3.5 1.3 1Z" fill="#263138"/><path d="m202 382.4 40.4 136.2c1.8 6 7.4 10.2 13.7 10.2l163.9.5a15.1 15.1 0 1 0 0-30.3h-62.6l-50.2-139.7h-87.9a18 18 0 0 0-17.3 23.1Z" fill="#445964"/><path d="M340.7 510.2c0 .3-16.7.6-37.3.6-20.6 0-37.3-.3-37.3-.6s16.7-.6 37.3-.6c20.6 0 37.3.3 37.3.6Z" fill="#263138"/><path d="M214 363.6c.4 0 11.6 32.5 25 72.9 13.5 40.3 24.1 73 23.8 73.2-.3 0-11.4-32.5-24.9-72.9a2570.3 2570.3 0 0 1-23.8-73.2Z" fill="#263138"/><path d="m333.9 649.9-10-.3V528.8h10v121Z" fill="#445964"/><path d="M282.4 649.3h93l-42.2-14.6h-10l-40.8 14.6Z" fill="#445964"/><path d="m258.9 328 15.4 76.8-2.8 57.6L375 445.2l-4-50.4-.1-41.7 25.3 49.1 19.8-38-36.2-65.5a61 61 0 0 0-23.6-15.3 48.8 48.8 0 0 0-14.8-2.8 59.4 59.4 0 0 1-35.8 0l-6 .7h-.5a45.7 45.7 0 0 0-40 43l-.1 3.8Z" fill="#DFDFDF"/><path d="M299.5 281.3s-42.5.3-47.8 45.1l-.7 32.9 36.6-.3 11.9-77.7Z" fill="#DFDFDF"/><path d="M401 339c0 .2-33.5.5-74.7.5s-74.7-.3-74.7-.6 33.5-.5 74.7-.5 74.7.2 74.7.5Z" fill="#F9F9F9"/><path d="M401 346c0 .4-33.5.6-74.7.6s-74.7-.2-74.7-.6c0-.3 33.5-.5 74.7-.5s74.7.2 74.7.5Z" fill="#F9F9F9"/><path d="M398.6 333c0 .4-33 .6-73.5.6-40.6 0-73.5-.2-73.5-.6 0-.3 33-.5 73.5-.5 40.6 0 73.5.2 73.5.5Z" fill="#F9F9F9"/><path d="M370.2 402.2c-.3 0-.1-18.2.3-40.6.5-22.4 1.2-40.5 1.5-40.5.3 0 .2 18.1-.3 40.6-.5 22.4-1.2 40.5-1.5 40.5Z" fill="#263138"/><path d="M355.7 372.7s20.1 1.5 23.7 6.8c3.6 5.3 9.2 20.4 7 20.5-2 .1-3.5-1.1-3.5-1.1l-5.6-9.8s1 9.5-2.4 9.7c-3.3.1-19.6 3.4-19.6 3.4l.4-29.5Z" fill="#FFBD9C"/><path d="M251 350.5v51.8c.6 12.1 12 20.7 23.8 18.2l81-16.7-.2-33.2-69.9 13.4-1-35.2-33.7 1.7Z" fill="#DFDFDF"/><path d="m297.2 416.3 1.1-.3 3.1-.7 12-2.5 42.1-8.6-.4.5v-34.1l.6.5c-4.5 1-9.3 1.8-14.2 2.8l-55.7 10.6h-.6v-.5l1.3-37.4.4-10.4.2-2.7.1-1v3.7l-.1 10.5-.9 37.3-.6-.5a1386718.3 1386718.3 0 0 0 70-13.5l.6-.1V405h-.5l-42.2 8.3-12 2.2-3.2.6-1 .1Z" fill="#263138"/><path d="M343.7 281.3s.2.2.3.7c.3.5.5 1.3.7 2.3.4 2 .6 5.1-.4 8.7a23 23 0 0 1-21.8 16.4 20 20 0 0 1-14.6-5.9c-3.4-3.6-5-8-5.4-11.7a18.5 18.5 0 0 1 2-10.8l.5-.7c.2 0-.4 1-1 3-.7 1.9-1.2 4.8-.7 8.4a20 20 0 0 0 5.4 11c3.3 3.4 8.4 5.6 13.8 5.6a22.6 22.6 0 0 0 21-15.5c1-3.4 1-6.4.7-8.4-.2-2-.6-3.1-.5-3.1Z" fill="#263138"/><path d="M347.6 406.5v-5a383.7 383.7 0 0 0 .2-29.7c.2 0 .5 1.9.8 5a129.4 129.4 0 0 1-1 29.7Z" fill="#F9F9F9"/><path d="m343.4 407.4-.1-5.1.1-12.2v-12.2c0-3.1 0-5 .2-5s.4 1.8.6 5a174.4 174.4 0 0 1-.8 29.5Z" fill="#F9F9F9"/><path d="m424.6 613 15.3 42.2 21.7 29.8a4.6 4.6 0 0 1-5.4 7c-8.8-3.7-41-17.2-42-20.3-1-3.7-21.8-49-21.8-49l32.2-9.7Z" fill="#445964"/><path d="m460.4 691.6-47.2-22.8.7 1.8a7 7 0 0 0 3.1 3.6c3.9 2 14.7 7.6 39 17.8 1.5.6 3 .5 4.4-.4Z" fill="white" fill-opacity=".6"/><path d="M416.5 652c1.3.3 2.3 1.8 2 3.1a2.7 2.7 0 0 1-3 2c-1.4-.2-2.6-2-2.1-3.2.4-1.3 2.1-2.4 3.4-1.8h-.3Z" fill="white" fill-opacity=".6"/><path d="M443.7 677c.3 0 .4-2.5 2.4-4.6 2-2.2 4.5-2.5 4.4-2.8 0-.1-.6-.2-1.6 0s-2.4 1-3.5 2.1a7.2 7.2 0 0 0-1.8 3.7c-.2 1 0 1.7 0 1.7Z" fill="#263138"/><path d="M448.8 681.5c.3.1 1.1-1.8 3-3.2 2-1.5 4-1.9 4-2.1 0-.3-2.4-.4-4.6 1.3-2.1 1.7-2.6 4-2.4 4Z" fill="#263138"/><path d="M435.4 672c.2.2 1.5-2.7 4.3-5.3 2.7-2.5 5.7-3.5 5.6-3.8 0-.3-3.4.4-6.3 3.1-3 2.7-3.9 6-3.6 6Z" fill="#263138"/><path d="M429.6 659.6c.2.2 2.2-1.6 5.1-2.9 3-1.3 5.7-1.5 5.7-1.8 0-.2-2.9-.5-6 .9-3.2 1.4-5 3.7-4.8 3.8Z" fill="#263138"/><path d="M424.8 647.4c.2.2 2-2.1 5.3-3.2 3.2-1.2 6-.5 6-.8 0 0-.6-.4-1.8-.6a9.9 9.9 0 0 0-8.5 3c-.8.8-1 1.5-1 1.6Z" fill="#263138"/><path d="M429 641.9c.1 0 0-.6-.5-1.6s-1.4-2.4-2.9-3.7c-.7-.6-1.6-1.4-3-1.5-.6 0-1.5.4-1.7 1.2a3 3 0 0 0 0 2.1 6.5 6.5 0 0 0 7.5 3.5 7.5 7.5 0 0 0 5.5-6.3c0-.7 0-1.5-.7-2-.6-.7-1.5-.6-2.1-.3-1.2.7-1.7 1.7-2.2 2.5-1 1.7-1.4 3.3-1.6 4.4-.2 1-.1 1.6 0 1.7.1 0 .2-2.5 2.2-5.7a6 6 0 0 1 2-2.2c.4-.2.8-.2 1.1.1.3.3.4.9.4 1.4a6.7 6.7 0 0 1-4.8 5.5c-2.7.7-5.5-.8-6.4-3-.2-.4-.3-1-.1-1.4a1 1 0 0 1 1-.7c.9 0 1.8.7 2.5 1.3 3 2.3 3.7 4.8 3.9 4.7Z" fill="#263138"/><path d="m489.2 602-1.3 34.3s34.4 12.8 34.8 19.2l-66.6-.2-.1-53.5 33.2.2Z" fill="#445964" fill-opacity=".3"/><path d="M467.3 633.3a2.7 2.7 0 0 0-1.8 3.1 2.6 2.6 0 0 0 3 2c1.3-.4 2.4-2.1 2-3.4-.4-1.2-2.2-2.2-3.4-1.6h.2Z" fill="white" fill-opacity=".3"/><path d="M456.1 655.3V650l64 2s3 1.4 2.6 3.5l-66.6-.2Z" fill="white" fill-opacity=".3"/><path d="M489 636c0 .3-1.6.4-3.2 1.4-1.7 1-2.5 2.4-2.8 2.3-.3 0 .2-2 2.1-3.2 2-1.3 4-.9 3.9-.6Z" fill="#263138" fill-opacity=".3"/><path d="M496 638.8c0 .3-1.4.9-2.5 2.3-1.1 1.3-1.4 2.8-1.7 2.8-.3 0-.6-1.9.9-3.6 1.3-1.6 3.3-1.8 3.3-1.5Z" fill="#263138" fill-opacity=".3"/><path d="M500 647.2c-.4 0-.8-1.6 0-3.3.8-1.8 2.4-2.5 2.5-2.3.2.3-.8 1.3-1.5 2.7-.7 1.5-.8 2.9-1 2.9Z" fill="#263138" fill-opacity=".3"/><path d="M488.4 628c-.1.4-1.6 0-3.4 0-1.9.1-3.3.7-3.5.5-.2-.3 1.2-1.5 3.4-1.6 2.2-.1 3.7 1 3.5 1.2Z" fill="#263138" fill-opacity=".3"/><path d="m489 608.8-.3 6.1-32.7-.4V609l33-.2Z" fill="black" fill-opacity=".3"/><path d="M488.6 621.2c0 .1-1.3.3-3.4 0a15 15 0 0 1-5.4-2.2l-1-.7c-.3-.4-.5-1.2-.1-1.8.3-.5 1-.7 1.4-.7a12 12 0 0 1 6.4 3c1.5 1.3 2 2.6 2 2.6-.2.1-1-.9-2.5-2a13.3 13.3 0 0 0-4.9-2.3c-.7-.2-1.3-.2-1.5 0l.1.4.7.6a17.3 17.3 0 0 0 5 2.3c2 .5 3.2.6 3.2.8Z" fill="#263138"/><path d="M488.1 621.6s-.7-1-.8-3.2a10.8 10.8 0 0 1 1.3-5.6c.4-.7.9-1.6 2.1-1.7.7 0 1.2.5 1.4 1l.3 1.1c.2.8.2 1.6 0 2.3a7.7 7.7 0 0 1-1.4 3.4c-1.3 1.7-2.6 2.1-2.7 2 0-.2 1-.8 2-2.4a7.7 7.7 0 0 0 1-5c0-.8-.3-1.4-.6-1.3-.3 0-.9.5-1.1 1.1a11.2 11.2 0 0 0-1.5 5.1c-.1 2 .2 3.2 0 3.2Z" fill="#263138"/><path d="m456 437.9-91.4 9.4 7.1 63.9s76.6-20.2 76-18.6c-.5 1.6 3.6 136 3.6 136h46.1l.9-152.2a38.2 38.2 0 0 0-42.2-38.5Z" fill="#263138"/><path d="M270.6 463.6v19.9c0 13.5 15.4 27.8 28.9 27.8h10.4a59 59 0 0 0 27.8-10.9l4-2.9 48 148.6s55-9.8 55-11.5c0-1.8-37.3-121.8-54.5-177.4a42.5 42.5 0 0 0-56.2-27.4c-24.6 9.8-63.4 33.8-63.4 33.8Z" fill="#263138"/><path d="m444.6 634.6-.2-.6a945 945 0 0 1-2.8-7.7 6257.3 6257.3 0 0 1-30.7-98.7l-12.6-42-5.4-18.2-2.5-8.3c-.8-2.6-1.5-5.2-2.5-7.5a30.8 30.8 0 0 0-7.7-11 65.4 65.4 0 0 0-13.6-9.8 4889.8 4889.8 0 0 0 0-.2 90.4 90.4 0 0 1 14 9.6c3 2.7 6.1 6.3 8 11.1a62 62 0 0 1 2.7 7.6l2.5 8.2 5.6 18.3 12.6 41.8a4059648 4059648 0 0 1 32 105.2l.5 1.6.1.6Z" fill="#445964"/><path d="M456.2 473.4c.3.2-2.3 4.2-4.5 9.5s-3.2 10-3.5 9.8c-.3 0 .1-4.8 2.4-10.3a25 25 0 0 1 5.6-9Z" fill="#445964"/><path d="M465 479.6c.2.3-3.8 2-8 5.3-4.1 3.3-6.7 6.7-7 6.5-.3-.1 2-4 6.3-7.4 4.3-3.4 8.6-4.7 8.7-4.4Z" fill="#445964"/><path d="M390.2 646.1c-.3.1-13.3-39.6-29-88.8-15.7-49.1-28.1-89-27.8-89.2.3 0 13.2 39.7 29 88.9a4122 4122 0 0 1 27.8 89.1Z" fill="#445964"/><path d="m331.3 414.3 157.1 1.5 29.3-82.8-114.3.8-26.5 74.4-45.6.7v5.4Z" fill="#445964"/><path d="M450.4 381.6a6.4 6.4 0 1 1 1.8-12.6 6.4 6.4 0 0 1-1.8 12.6Z" fill="white"/><path d="M318.4 190.3c1.5-5.5 5.7-8.3 11-10 5.5-2 11.8-1 16.3 2.5 3 2.3 5.4 5.7 9 7 6 2 13-2.4 18.6.2a8.4 8.4 0 0 1 4.5 9.3 8.4 8.4 0 0 1-8.3 6.2c3.9 1.4 5 7 2.8 10.4-2.3 3.4-7 4.7-11 4-4-.8-7.6-3.3-10.6-6-3-2.8-5.8-5.9-9.1-8.4a17.7 17.7 0 0 0-11.4-4.2c-5.6.3-10.4 4.5-12.8 9.5a41 41 0 0 0-3.4 16.3c-.3 5.6-.4 11.2-2 16.6-.3.6-.6 1.3-1.2 1.5-.9.3-1.7-.7-2.1-1.5-5-9.4-8.3-19.8-9.4-30.5-.6-6.2-.4-12 3-17.2 3.4-5.2 12-9 16.1-5.7Z" fill="#807A59"/><path d="m307.7 216.1-2.9 62.5c-.5 10.6 1 26.4 17.8 26.4 14.7-1.1 19-14.8 19.4-24.7l.5-9.1s16-.8 17.8-16.5c1-7.6 1.5-23.3 1.9-37.6.4-15.4-11-28.4-26.4-30l-1.5-.2c-16.4-.8-26.3 12.7-26.6 29.2Z" fill="#FFBD9C"/><path d="M342.5 271s-10-.3-19.9-8c0 0 3.7 11.8 19.5 12l.4-4Z" fill="#EB996E"/><path d="M356.5 227.1c0 1.2-1.2 2.1-2.4 2-1.3 0-2.2-1-2.1-2.2 0-1.2 1.1-2.1 2.4-2 1.2 0 2.2 1 2 2.2Z" fill="#263138"/><path d="M358 224.4c-.3.3-1.9-1.1-4.3-1.4-2.4-.3-4.3.8-4.6.4 0-.1.3-.6 1.1-1a6.2 6.2 0 0 1 7 .7c.8.7 1 1.2.8 1.3Z" fill="#263138"/><path d="M332.7 225.4c0 1.2-1.2 2.1-2.4 2-1.3 0-2.2-1-2.1-2.2 0-1.2 1.2-2.1 2.4-2a2 2 0 0 1 2.1 2.2Z" fill="#263138"/><path d="M334.2 222.4c-.3.2-1.9-1.2-4.3-1.5-2.4-.3-4.3.8-4.6.5 0-.2.3-.7 1.1-1.2a6.2 6.2 0 0 1 7 .8c.7.7 1 1.2.8 1.4Z" fill="#263138"/><path d="m341 241.2 4-.3c.7 0 1.3 0 1.4-.5.2-.4 0-1-.2-1.8l-1.3-5A81 81 0 0 1 342 221c.3-.1 2 5.5 3.8 12.4l1.2 5c.2.7.5 1.5.1 2.4-.2.4-.7.7-1.1.8h-1a17 17 0 0 1-4-.4Z" fill="#263138"/><path d="M333.8 242.1c.4 0 0 2.7 2.1 4.8 2 2 4.9 2 4.9 2.4 0 .2-.7.5-1.9.4a6.6 6.6 0 0 1-4-2 5.7 5.7 0 0 1-1.7-3.9c0-1.1.4-1.7.6-1.7Z" fill="#263138"/><path d="M335.8 213c-.3.6-2.7 0-5.5 0-3 0-5.3.6-5.6 0-.1-.3.3-.9 1.3-1.4 1-.6 2.5-1 4.2-1 1.8 0 3.3.4 4.3 1 1 .5 1.5 1 1.3 1.4Z" fill="#263138"/><path d="M357.8 217.3c-.4.5-2-.2-4-.4-2-.3-3.8 0-4.1-.7-.1-.3.2-.8 1-1.2.8-.5 2-.8 3.4-.6a5 5 0 0 1 3.1 1.5c.7.6.9 1.2.6 1.4Z" fill="#263138"/><path d="M307.7 227.9c-.2-.2-10.5-4.4-11.3 6.4-.8 10.8 10.2 9.4 10.3 9l1-15.4Z" fill="#FFBD9C"/><path d="m303.7 239-.5.3c-.4.1-.9.2-1.4 0-1.2-.6-2-2.5-1.9-4.4 0-1 .3-2 .7-2.7.4-.7 1-1.2 1.6-1.3.5 0 1 .3 1 .6.2.3 0 .5.1.5 0 0 .3-.1.2-.6 0-.2-.1-.5-.4-.7-.2-.2-.6-.3-1-.3-.8 0-1.6.7-2 1.5-.6.8-.9 1.8-1 3 0 2.1 1 4.2 2.5 4.8a2 2 0 0 0 1.7-.1l.4-.5Z" fill="#EB996E"/><path d="M365.9 214.2a22.9 22.9 0 0 1-19.7-6.7c-3.5-3.7-6-8.6-10.6-10.6-3.1-1.4-6.8-1-10 .3a24.8 24.8 0 0 0-8 6c2.1 8.3-.8 17-3.8 25-.3 1-.7 2-1.5 2.4-1.4.8-3.2-.1-4.2-1.4a13 13 0 0 1-2.2-7.3c-.4-5.9.1-11.9 2-17.4a30.3 30.3 0 0 1 9.9-14.3 28.7 28.7 0 0 1 20.8-5.5c7.3 1 14.2 4.4 19.5 9.5 2.5 2.3 4.8 5 5.8 8.3l2 11.7Z" fill="#807A59"/><path d="M111.7 81v4.8H110V73.3h4.6a5 5 0 0 1 3.2 1c.8.8 1.2 1.7 1.2 2.8 0 1.2-.4 2.2-1.2 2.8-.7.7-1.8 1-3.2 1h-3Zm0-1.4h3c.8 0 1.5-.2 2-.7.4-.4.6-1 .6-1.8 0-.7-.2-1.3-.7-1.7-.4-.5-1-.7-1.9-.7h-3v4.9Zm13.2 0 3.2-6.3h2l-4.4 7.8v4.7h-1.6V81l-4.3-7.8h1.9l3.2 6.3Zm15.5-5h-4v11.2h-1.7V74.7h-4v-1.4h9.7v1.4Zm11.4 11.2h-1.6V80h-6.3v5.8h-1.6V73.3h1.6v5.4h6.3v-5.4h1.6v12.5Zm12.6-5.8c0 1.2-.2 2.2-.6 3.2-.5.9-1 1.6-1.8 2a4.8 4.8 0 0 1-5.3 0 4.8 4.8 0 0 1-1.7-2c-.4-1-.7-2-.7-3.1v-1c0-1.1.2-2.2.7-3.1.4-1 1-1.6 1.7-2.1a4.8 4.8 0 0 1 5.3 0c.8.4 1.3 1.1 1.8 2 .4 1 .6 2 .6 3.3v.8Zm-1.7-.9c0-1.4-.3-2.6-.9-3.4a3 3 0 0 0-2.5-1.1 3 3 0 0 0-2.4 1.1c-.6.8-1 2-1 3.3v1c0 1.4.4 2.5 1 3.3a3 3 0 0 0 2.5 1.3 3 3 0 0 0 2.4-1.2c.6-.8 1-1.9 1-3.3v-1Zm13.7 6.7h-1.6l-6.3-9.6v9.6h-1.7V73.3h1.7l6.3 9.7v-9.7h1.6v12.5Z" fill="#263138"/><path d="M437 128.2a6.3 6.3 0 0 1-2 4.4 7 7 0 0 1-4.8 1.5c-2.1 0-3.8-.7-5.1-2.3a9.3 9.3 0 0 1-2-6V124c0-1.7.4-3.2 1-4.5a6.7 6.7 0 0 1 6.3-4c2 0 3.5.6 4.7 1.7 1.1 1 1.8 2.5 2 4.4h-2.4a4.7 4.7 0 0 0-1.4-3 4 4 0 0 0-2.9-1c-1.5 0-2.7.5-3.5 1.6a7.7 7.7 0 0 0-1.3 4.8v1.8a8 8 0 0 0 1.2 4.7 4 4 0 0 0 3.4 1.7c1.4 0 2.4-.3 3-1 .8-.5 1.3-1.5 1.5-3h2.4Zm8.6-2.4c-2-.5-3.5-1.3-4.4-2.1-1-.9-1.4-2-1.4-3.2 0-1.4.6-2.6 1.7-3.5 1.1-1 2.6-1.4 4.4-1.4 1.3 0 2.4.2 3.3.7a5 5 0 0 1 2.3 2c.5.8.8 1.8.8 2.8h-2.4c0-1.1-.3-2-1-2.6-.7-.6-1.7-1-3-1-1.1 0-2 .3-2.7.8-.7.5-1 1.3-1 2.2 0 .7.3 1.3 1 1.8.6.5 1.6 1 3.1 1.4l3.5 1.4c.9.5 1.5 1.1 2 1.8.3.7.5 1.5.5 2.4a4 4 0 0 1-1.7 3.5 7.3 7.3 0 0 1-4.5 1.3c-1.3 0-2.4-.2-3.5-.7a6 6 0 0 1-2.5-2c-.6-.7-.9-1.7-.9-2.7h2.4c0 1 .4 2 1.2 2.5.8.7 1.9 1 3.3 1 1.2 0 2.2-.3 2.8-.8.7-.5 1-1.2 1-2 0-1-.3-1.6-.9-2.1a10 10 0 0 0-3.4-1.5Zm15.1 0c-2-.5-3.5-1.3-4.4-2.1-1-.9-1.4-2-1.4-3.2 0-1.4.5-2.6 1.7-3.5 1.1-1 2.6-1.4 4.4-1.4 1.2 0 2.3.2 3.3.7 1 .5 1.7 1.1 2.3 2 .5.8.8 1.8.8 2.8H465c0-1.1-.4-2-1-2.6-.8-.6-1.7-1-3-1-1.2 0-2 .3-2.7.8-.7.5-1 1.3-1 2.2 0 .7.3 1.3.9 1.8.6.5 1.7 1 3.2 1.4l3.5 1.4a4.5 4.5 0 0 1 2.5 4.2c0 1.5-.6 2.6-1.7 3.5a7.3 7.3 0 0 1-4.6 1.3c-1.2 0-2.4-.2-3.5-.7a6 6 0 0 1-2.4-2c-.6-.7-1-1.7-1-2.7h2.5c0 1 .4 2 1.2 2.5a5 5 0 0 0 3.2 1c1.3 0 2.2-.3 3-.8a2.6 2.6 0 0 0 0-4.1c-.6-.5-1.8-1-3.4-1.5Z" fill="#263138"/><path d="M619.3 338h-2.2v-7.6h-8.3v7.6h-2.2v-16.6h2.2v7.2h8.3v-7.2h2.2V338Zm15-14.8H629V338h-2.2v-14.8h-5.3v-1.8h12.9v1.8Zm5.4-1.8L645 335l5.4-13.6h2.9V338h-2.2v-6.4l.2-7-5.5 13.4h-1.7l-5.4-13.4.2 7v6.4h-2.2v-16.6h2.9Zm19.7 14.8h7.9v1.8h-10v-16.6h2.1v14.8Z" fill="white"/><path d="M63.6 546.3c5.5-2.8 12-3.2 18-2.2 3.4.6 6.8 1.6 9 4 2.3 2.5 2.7 6.9.1 9-1.5 1.2-3.6 1.4-5.6 1.4-4.8 0-10.1-.9-14 2-2.1 1.6-3.6 4.4-6.2 5.2-2.5.8-5.4-.8-6.8-3a10.5 10.5 0 0 1-.7-7.8s.6-5.7 6.2-8.6Z" fill="#DFDFDF"/><path d="M51 522c3.3 4.8 9.9 3.2 12.9.3 3-3 4.3-7.2 5.5-11.3a59 59 0 0 0 3.4-28.4c-.6-2.8-1.7-5.6-3.7-7.7-2-2.1-5-3.4-7.8-2.6-3.3.8-5.4 4-6.8 7.1-4.4 9-6.7 19-6.7 29.1 0 4.7.5 9.6 3.1 13.5Z" fill="#DFDFDF"/><path d="M41.7 528.9a17.5 17.5 0 0 0 2.7-16.1A31 31 0 0 0 35 499c-5-4.5-10.8-8-17.1-10.1-2.5-.9-5.1-1.6-7.7-1.3a8.2 8.2 0 0 0-6.5 3.9c-1.8 3.4 0 7.6 1.8 11 3.3 6 7 11.6 11.3 17a30 30 0 0 0 12.3 10.6c5.1 2 10.5 1.7 13.2-1.8l-.5.6Z" fill="#DFDFDF"/><path d="m50.7 594.5.3-2.1.6-6a67.4 67.4 0 0 1 4.5-19 38 38 0 0 1 5.3-9.4 18.7 18.7 0 0 1 12.3-7.3l2.2-.3h-2.2a17 17 0 0 0-5.9 1.5c-2.4 1-4.9 3-7 5.6-2.2 2.6-4 5.9-5.5 9.5a63 63 0 0 0-4.6 25.3v2.2Z" fill="#263138"/><path d="M51.1 590v-1a11880 11880 0 0 1 .2-13.6c.2-9 1-18.7 2.5-32.3a465.1 465.1 0 0 1 6.6-43.4l1-4.5.7-2.8.2-1-.4 1-.8 2.7a90.4 90.4 0 0 0-2.6 10.4 358.7 358.7 0 0 0-7.7 80.6l.2 2.8.1 1Z" fill="#263138"/><path d="M51.2 566v-3a83.9 83.9 0 0 0-3.6-20.3c-.6-2-1.9-6.8-5-14.1a75.4 75.4 0 0 0-14.7-22.9c-1.2-1.3-2.5-2.2-3.5-3.2l-1.5-1.2a1461.6 1461.6 0 0 0-3.9-2.6c-.1.2 3.7 2.4 8.4 7.5 4.7 5 10.2 13 14.3 22.8a111.8 111.8 0 0 1 8 25.8 119.4 119.4 0 0 1 1.5 11.1Z" fill="#263138"/><path d="m28 608.3 2.4 33h42.4l2.4-33H28Z" fill="#263138"/><path d="M23.9 595.3v13h56.3v-13H24Z" fill="#263138"/><path d="M23.9 640v3.6h55.4V640H23.9Z" fill="#445964"/><path d="m29.1 650-2.6-6.4h50.8l-3 6.4H29Z" fill="#445964"/><path d="m74.4 619-.2.4-.7.8-2.4 3.2-.1.1-.1-.1-6.1-8.4h.3l-6 8.4-.1.3-.2-.2-7.1-8.5h.4l-.4.5-6.3 8-.2.2-.2-.3-6-8.4h.3l-7.3 8.4-.2.1v-.1l-2.4-3.9-.5-1-.2-.4.2.3.7 1 2.4 3.8h-.2l7.2-8.5.2-.2.2.2 6 8.4H45l6.3-8 .4-.4.2-.3.2.3 7 8.4h-.3l6-8.4.2-.2.1.2 6 8.5h-.2a6904.8 6904.8 0 0 1 3.5-4.1Z" fill="#DFDFDF"/><path d="M75.8 608c0 .2-10.7.3-23.8.3-13 0-23.7 0-23.7-.2s10.6-.3 23.7-.3 23.8.1 23.8.3Z" fill="#445964"/><path d="M77.9 644c0 .1-11.5.2-25.8.2-14.2 0-25.8 0-25.8-.2s11.6-.3 25.8-.3c14.3 0 25.8.1 25.8.3Z" fill="#263138"/><path d="m579 264.4-29.4 123h8.2l29-123H579Z" fill="#263138"/><path d="M567.7 345.5a1832 1832 0 0 0 13.3 69.3h-6.6l-10.5-53.2 3.8-16.1Z" fill="#263138"/><path d="M665.8 649.6h-138V503.5h138v146.1Z" fill="#445964"/><path d="M672.5 531.6h-6.7v-6.8h6.7v6.8Z" fill="#263138"/><path d="M672.5 553h-6.7v-6.7h6.7v6.8Z" fill="#263138"/><path d="M672.5 574.6h-6.7v-6.8h6.7v6.8Z" fill="#263138"/><path d="M672.5 596h-6.7v-6.7h6.7v6.8Z" fill="#263138"/><path d="m672.8 569.8 2-.5c1.4-.2 3.4-.5 5.9-.5 2.4 0 5.5.4 8.4 2.2 1.4.9 2.7 2.1 3.5 3.8 1 1.6 1.3 3.5 1.1 5.5-.1 1.9-.8 3.7-1.7 5.3a17 17 0 0 1-11.6 6.9 26.5 26.5 0 0 1-8 0l2.1-.1c1.4 0 3.3 0 5.7-.4a19 19 0 0 0 7.7-3.3c2.6-1.8 4.8-4.9 5-8.5.2-1.8-.2-3.6-1-5-.7-1.6-2-2.7-3.2-3.6a15.5 15.5 0 0 0-8-2.2c-2.5-.1-4.4.1-5.8.2l-2.1.2Z" fill="#263138"/><path d="m671.1 548.4.6-.4 2-.8a18 18 0 0 1 8-.4c.8.2 1.7.4 2.5 1 .8.5 1.5 1.4 1.8 2.4a7 7 0 0 1-1.6 6.2c-.7.8-1.6 1.6-2.8 2-1.2.5-2.6.5-3.8-.1-1-.6-2.1-1.8-2.1-3.3a4 4 0 0 1 2.2-3.3 6 6 0 0 1 4-.4c1.2.2 2.4.8 3.4 1.6a8.7 8.7 0 0 1 1.7 12.3 12.5 12.5 0 0 1-4.3 3.5 20.4 20.4 0 0 1-9.8 2.1h-.8l2.9-.4c1.8-.2 4.5-.6 7.4-2.2a12 12 0 0 0 4-3.4 8 8 0 0 0 1.6-5.7 9 9 0 0 0-3.2-5.6c-1-.7-2-1.2-3.1-1.5a5.2 5.2 0 0 0-3.4.4c-1 .5-1.8 1.5-1.8 2.6 0 1 .8 2 1.7 2.6 1 .5 2.1.5 3.1.1 1-.3 1.9-1 2.6-1.8 1.3-1.6 2-3.8 1.4-5.5-.4-1.8-2.2-2.7-3.7-3-3.3-.8-6-.3-7.8.1-1.7.5-2.7 1-2.7 1Z" fill="#263138"/><path d="M671.2 527.5s.5-.3 1.5-.3 2.4 0 4.1.6c1.7.5 3.6 1.6 5.2 3.4 1.5 1.8 2.6 4.4 2.6 7.1a11.5 11.5 0 0 1-7.1 11 11 11 0 0 1-4.1 1 4 4 0 0 1-1.5-.3c0-.2 2.2.3 5.4-1.1 1.5-.8 3.2-2 4.5-3.7a11 11 0 0 0 2-6.8 11 11 0 0 0-7.2-10.1c-3.2-1.2-5.4-.7-5.4-.8Z" fill="#263138"/><path d="m568.8 425.8 1.1 2.8c.7 1.8 1.3 4.6 1.9 8.3l1.5 13.3c.5 5.2 1 11.2 1.8 17.7a43.3 43.3 0 0 0 2.3 10c.7 1.5 2 2.9 3.3 4.1a26.5 26.5 0 0 0 15.6 7.3c4 .4 8.4-.2 12.2-2.1 3.8-2 7-5.5 7.9-10 .5-2 .4-4.4-.5-6.5-.8-2-2.4-3.9-4.3-5.1a13 13 0 0 0-6.5-2.2 10 10 0 0 0-6.6 2c-1 .6-1.7 1.5-2.2 2.6-.5 1-.7 2.2-.5 3.3a8.2 8.2 0 0 0 4.3 5.5c2.2 1.1 4.6 1.6 7 2a114.8 114.8 0 0 0 21.7-.3c9.5-1.1 18.6-2.7 27.4-2.7 8.7-.2 17.2 1 24.3 4.5 3.5 1.8 6.6 4 9 6.8 2.4 2.7 4 6 4.7 9.2a25 25 0 0 1-2.7 17.4 29.4 29.4 0 0 1-9.2 9.8 39 39 0 0 1-7.5 3.9l-2.9.8.7-.2a43.2 43.2 0 0 0 9.6-4.8 25 25 0 0 0 11.4-26.7c-.7-3.2-2.2-6.4-4.6-9a27.9 27.9 0 0 0-8.8-6.6 53 53 0 0 0-24-4.4c-8.7.1-17.8 1.6-27.2 2.7a115.2 115.2 0 0 1-22 .3c-2.4-.3-5-.8-7.3-2a9 9 0 0 1-4.6-6c-.3-1.3-.1-2.7.5-3.9a8 8 0 0 1 2.4-3c2-1.5 4.7-2.1 7.2-2 2.5.1 4.9 1 6.9 2.3 2 1.4 3.7 3.3 4.6 5.5.9 2.3 1 4.8.4 7-1 4.7-4.3 8.5-8.2 10.4-4 2-8.5 2.6-12.6 2.2a27 27 0 0 1-19.5-11.9 19 19 0 0 1-1.5-5l-.8-5.1c-.8-6.6-1.2-12.5-1.6-17.7l-1.4-13.4a56.6 56.6 0 0 0-2.4-10.4l-.3-.7Z" fill="#263138"/><path d="m658 643.5-.1-.7v-9.1l-.2-27.3-.1-97.2.3.4H533.2l.4-.4v134.3l-.4-.4 90.4.2 25.3.1h9l-2.2.1H649a296407.1 296407.1 0 0 1-115.8.3h-.3v-135h125.4v.4l-.2 97.4-.1 27.3v7.2a7789.2 7789.2 0 0 1 0 2.4Z" fill="#263138"/><path d="M622.8 525.7a.6.6 0 1 1-1.3 0 .6.6 0 0 1 1.3 0Z" fill="#263138"/><path d="M626.3 525.7a.6.6 0 1 1-1.3 0 .6.6 0 0 1 1.3 0Z" fill="#263138"/><path d="M629.8 525.7a.6.6 0 1 1-1.2 0 .6.6 0 0 1 1.2 0Z" fill="#263138"/><path d="M633.4 525.7a.6.6 0 1 1-1.3 0 .6.6 0 0 1 1.3 0Z" fill="#263138"/><path d="M636.9 525.7a.6.6 0 1 1-1.3 0 .6.6 0 0 1 1.3 0Z" fill="#263138"/><path d="M640.4 525.7a.6.6 0 1 1-1.3 0 .6.6 0 0 1 1.3 0Z" fill="#263138"/><path d="M644 525.7a.6.6 0 1 1-1.3 0 .6.6 0 0 1 1.2 0Z" fill="#263138"/><path d="M642.3 528.1a.6.6 0 1 1-1.3 0 .6.6 0 0 1 1.3 0Z" fill="#263138"/><path d="M638.7 528.1a.6.6 0 1 1-1.3 0 .6.6 0 0 1 1.3 0Z" fill="#263138"/><path d="M635.1 528.1a.6.6 0 1 1-1.3 0 .6.6 0 0 1 1.3 0Z" fill="#263138"/><path d="M631.5 528.1a.6.6 0 1 1-1.3 0 .6.6 0 0 1 1.3 0Z" fill="#263138"/><path d="M627.9 528.1a.6.6 0 1 1-1.3 0 .6.6 0 0 1 1.3 0Z" fill="#263138"/><path d="M624.3 528.1a.6.6 0 1 1-1.3 0 .6.6 0 0 1 1.3 0Z" fill="#263138"/><path d="M622.8 530.8a.6.6 0 1 1-1.3 0 .6.6 0 0 1 1.3 0Z" fill="#263138"/><path d="M626.3 530.8a.6.6 0 1 1-1.3 0 .6.6 0 0 1 1.3 0Z" fill="#263138"/><path d="M629.8 530.8a.6.6 0 1 1-1.2 0 .6.6 0 0 1 1.2 0Z" fill="#263138"/><path d="M633.4 530.8a.6.6 0 1 1-1.3 0 .6.6 0 0 1 1.3 0Z" fill="#263138"/><path d="M636.9 530.8a.6.6 0 1 1-1.3 0 .6.6 0 0 1 1.3 0Z" fill="#263138"/><path d="M640.4 530.8a.6.6 0 1 1-1.3 0 .6.6 0 0 1 1.3 0Z" fill="#263138"/><path d="M644 530.8a.6.6 0 1 1-1.3 0 .6.6 0 0 1 1.2 0Z" fill="#263138"/><path d="M642.3 533.1a.6.6 0 1 1-1.3 0 .6.6 0 0 1 1.3 0Z" fill="#263138"/><path d="M638.7 533.1a.6.6 0 1 1-1.3 0 .6.6 0 0 1 1.3 0Z" fill="#263138"/><path d="M635.1 533.1a.6.6 0 1 1-1.3 0 .6.6 0 0 1 1.3 0Z" fill="#263138"/><path d="M631.5 533.1a.6.6 0 1 1-1.3 0 .6.6 0 0 1 1.3 0Z" fill="#263138"/><path d="M627.9 533.1a.6.6 0 1 1-1.3 0 .6.6 0 0 1 1.3 0Z" fill="#263138"/><path d="M624.3 533.1a.6.6 0 1 1-1.3 0 .6.6 0 0 1 1.3 0Z" fill="#263138"/><path d="M622.8 535.8a.6.6 0 1 1-1.3 0 .6.6 0 0 1 1.3 0Z" fill="#263138"/><path d="M626.3 535.8a.6.6 0 1 1-1.3 0 .6.6 0 0 1 1.3 0Z" fill="#263138"/><path d="M629.8 535.8a.6.6 0 1 1-1.2 0 .6.6 0 0 1 1.2 0Z" fill="#263138"/><path d="M633.4 535.8a.6.6 0 1 1-1.3 0 .6.6 0 0 1 1.3 0Z" fill="#263138"/><path d="M636.9 535.8a.6.6 0 1 1-1.3 0 .6.6 0 0 1 1.3 0Z" fill="#263138"/><path d="M640.4 535.8a.6.6 0 1 1-1.3 0 .6.6 0 0 1 1.3 0Z" fill="#263138"/><path d="M644 535.8a.6.6 0 1 1-1.3 0 .6.6 0 0 1 1.2 0Z" fill="#263138"/><path d="M642.3 538.2a.6.6 0 1 1-1.3 0 .6.6 0 0 1 1.3 0Z" fill="#263138"/><path d="M638.7 538.2a.6.6 0 1 1-1.3 0 .6.6 0 0 1 1.3 0Z" fill="#263138"/><path d="M635.1 538.2a.6.6 0 1 1-1.3 0 .6.6 0 0 1 1.3 0Z" fill="#263138"/><path d="M631.5 538.2a.6.6 0 1 1-1.3 0 .6.6 0 0 1 1.3 0Z" fill="#263138"/><path d="M627.9 538.2a.6.6 0 1 1-1.3 0 .6.6 0 0 1 1.3 0Z" fill="#263138"/><path d="M624.3 538.2a.6.6 0 1 1-1.3 0 .6.6 0 0 1 1.3 0Z" fill="#263138"/><path d="M574 381.4s1 0 2.6.4c1.5.5 3.9 1.7 6 4 2.3 2.3 4.1 5.9 5.4 10.2a88 88 0 0 1 3.4 15c1.8 11.2 2 24.7 1 39.7-.4 3.7-1.2 7.7-3.4 11a14 14 0 0 1-4.4 4.3c-1.8 1-4 1.6-6 1.4a9.5 9.5 0 0 1-5.8-2.7 7 7 0 0 1-1.7-2.8 6 6 0 0 1 0-3.3c.6-2.1 2.1-4 4.3-4.9 1-.3 2.3-.3 3.4 0 1.1.5 2 1.2 2.8 2.1a8.4 8.4 0 0 1 1.5 6.4 24 24 0 0 1-11 15c-7.3 4.2-16.3 4-23 .3a26.9 26.9 0 0 1-8.3-7.2 35 35 0 0 1-5-9 57.8 57.8 0 0 1-3.5-18.3c-.3-5.7 0-10.8-.5-15.3-.3-2.2-.8-4.2-1.5-6a17 17 0 0 0-2.5-4.5c-2-2.5-4.2-3.7-5.8-4.2-1.6-.6-2.5-.6-2.4-.6 0 0 .9 0 2.5.4 1.6.5 3.9 1.7 5.9 4.2 1 1.2 2 2.7 2.7 4.6.7 1.8 1.2 3.8 1.5 6 .6 4.6.4 9.7.7 15.4a59 59 0 0 0 3.4 18 29.3 29.3 0 0 0 13.2 15.9 23 23 0 0 0 30.6-9 17 17 0 0 0 2.2-5.8c.3-2-.1-4.2-1.4-5.8a5.4 5.4 0 0 0-2.3-1.8c-1-.3-2-.3-3 0a6.3 6.3 0 0 0-3.7 4.3c-.6 2 .1 4 1.5 5.4a8.6 8.6 0 0 0 5.2 2.4 9 9 0 0 0 5.6-1.3c1.7-1 3-2.4 4.1-4 2.2-3.2 3-7 3.4-10.7 1-14.8.8-28.4-.8-39.6-.8-5.6-2-10.6-3.3-14.9-1.3-4.2-3-7.8-5.2-10a14.3 14.3 0 0 0-5.9-4.1c-1.6-.6-2.5-.5-2.5-.6Z" fill="#DFDFDF"/><path d="M562 413.5h-51.5v-9.8H562v9.8Z" fill="#DFDFDF"/><path d="M191.2 649h-67V504.7h67V649Z" fill="#263138"/><path d="M185.4 633.7v-.6a1968.4 1968.4 0 0 1 0-8.7l-.2-25.7c0-22 0-52.9-.2-88.9l.4.4h-56l.4-.4-.1 124-.3-.4 40.9.2h11.2l2.9.1h1-1l-2.8.1h-11.1l-41.1.2h-.3v-.3l-.1-123.9v-.4h56.8v.4l-.2 89.1a134943.7 134943.7 0 0 0-.2 34.3v.5Z" fill="#445964"/><path d="m182 520.3-.1-1.5-.1-4.2.2.2-48.8.2.4-.4v5.8l-.4-.4a3995.4 3995.4 0 0 1 44.9.3h2.8l1 .1h-.9l-2.7.1-10.3.1-34.8.2h-.4v-6.1l.4-.5 48.8.2h.1v4.5l-.1 1.4Z" fill="#445964"/><path d="M138.1 524.4c0 .2-1 .4-2.2.4-1.3 0-2.3-.2-2.3-.4s1-.4 2.3-.4c1.2 0 2.2.2 2.2.4Z" fill="#445964"/><path d="M180.7 531.8c0 .2-10.4.4-23.2.4-12.8 0-23.2-.2-23.2-.4s10.4-.4 23.2-.4c12.8 0 23.2.2 23.2.4Z" fill="#445964"/><path d="M180.9 540.8c0 .2-10.2.4-22.8.4-12.6 0-22.8-.2-22.8-.4s10.2-.4 22.8-.4c12.6 0 22.8.2 22.8.4Z" fill="#445964"/><path d="M161.2 561.8a3.7 3.7 0 1 1-7.4 0 3.7 3.7 0 0 1 7.4 0Z" fill="#DFDFDF"/><path d="M147 561.6c0 .2-2.1.4-4.8.4-2.8 0-5-.2-5-.4s2.2-.4 5-.4c2.7 0 4.9.2 4.9.4Z" fill="#445964"/><path d="M177 560.7c0 .2-2 .4-4.7.4a14 14 0 0 1-4.7-.4c0-.3 2.1-.4 4.7-.4s4.7.1 4.7.4Z" fill="#445964"/><path d="M126.5 577.1s-.9 0-2.5-.4c-1.6-.5-4-1.3-6.7-3a28.3 28.3 0 0 1-8-8.4 57.8 57.8 0 0 1-7.7-32.6c.5-6.7 2.6-13.9 7.1-20a31.7 31.7 0 0 1 13.8-10.7c2-.6 4-1.1 6-1.4 4-.6 8.2-.5 12.4-.7a31 31 0 0 0 12.2-2.8c3.8-1.9 6.8-5.3 7.6-9.4 1-4 0-8.3-2.7-11.3a13 13 0 0 0-10.3-4.6c-1.9.2-3.7.8-5.1 2a5.6 5.6 0 0 0-2.2 4.6 7.5 7.5 0 0 0 6.9 6.7c3.4.2 6.7-1.6 8.8-4a21 21 0 0 0 4.3-8.4c.9-3 1.4-5.9 1.8-8.7 1.6-11.2 1-20.4.8-26.7l-.4-7.3v-2.5.6a1523.5 1523.5 0 0 0 .7 9.2c.3 6.3 1 15.5-.5 26.8-.5 2.8-1 5.8-1.8 8.8-.8 3-2 6-4.4 8.6a12 12 0 0 1-9.4 4.3 8.2 8.2 0 0 1-7.5-7.4 6 6 0 0 1 2.4-5.2 10 10 0 0 1 5.6-2.1 13.7 13.7 0 0 1 13.9 16.9c-.5 2-1.5 4-3 5.7a16 16 0 0 1-5 4c-4 2-8.4 2.7-12.6 3-4.3.2-8.4.1-12.4.7a28.8 28.8 0 0 0-11 4 31 31 0 0 0-8.3 7.7 38 38 0 0 0-7 19.6 57.5 57.5 0 0 0 7.4 32.3c2.4 3.8 5.2 6.6 7.8 8.3a22.6 22.6 0 0 0 9 3.8Z" fill="#263138"/><path d="M262.3 390.2H103.7V281.3h158.6v108.9Z" fill="#263138"/><path d="M192.3 416.4h-21.6v-41h21.6v41Z" fill="#263138"/><path d="M119.4 414.8v14.8h81.9v220h7.5v-220l341.8 1.7v218.3h7.4V430.8l52.8.5v-17.8l-491.4 1.3Z" fill="#263138"/><path d="m171.8 426.7 32.3 23.2-2.8 2.7-32.5-24.5 3-1.4Z" fill="#263138"/><path d="M588.4 428.9 551 455.5l2.8 2.7 37.7-28-3-1.3Z" fill="#263138"/><path d="M323 409.4h-84.5v6.2H323v-6.2Z" fill="#263138"/></svg>