<?xml version="1.0" standalone="no"?>
<!DOCTYPE svg PUBLIC "-//W3C//DTD SVG 20010904//EN"
 "http://www.w3.org/TR/2001/REC-SVG-20010904/DTD/svg10.dtd">
<svg version="1.0" xmlns="http://www.w3.org/2000/svg"
 width="500.000000pt" height="500.000000pt" viewBox="0 0 500.000000 500.000000"
 preserveAspectRatio="xMidYMid meet">

<g transform="translate(0.000000,500.000000) scale(0.100000,-0.100000)"
fill="#ffffff" stroke="none">
<path d="M2247 3939 c-299 -52 -558 -189 -777 -408 -213 -214 -345 -453 -407
-743 -26 -120 -25 -458 1 -578 63 -292 200 -543 406 -750 198 -198 455 -338
730 -397 122 -26 478 -26 599 0 521 112 945 499 1100 1003 52 168 64 265 58
469 -6 196 -18 268 -72 432 -120 362 -392 671 -745 848 -253 127 -602 176
-893 124z m473 -14 c617 -100 1096 -572 1201 -1183 24 -142 25 -351 3 -483
-86 -515 -454 -949 -950 -1122 -184 -64 -236 -72 -474 -72 -234 0 -263 4 -445
62 -481 154 -844 552 -962 1052 -30 131 -42 383 -24 512 68 478 357 879 791
1099 141 71 275 112 470 143 66 11 303 6 390 -8z"/>
<path d="M2269 3845 c-268 -45 -530 -182 -731 -381 -170 -169 -299 -390 -359
-619 -28 -105 -32 -141 -36 -291 -6 -203 9 -324 63 -483 150 -451 516 -784
989 -902 119 -30 388 -37 526 -14 499 83 918 442 1074 919 53 163 69 281 62
470 -11 281 -76 487 -225 711 -206 311 -546 532 -905 590 -111 18 -351 18
-458 0z m546 -38 c271 -70 469 -187 666 -394 137 -145 228 -298 294 -497 52
-155 69 -279 62 -471 -8 -240 -57 -411 -178 -623 -62 -107 -126 -187 -235
-292 -174 -168 -370 -276 -609 -337 -138 -35 -386 -43 -536 -18 -532 89 -958
485 -1085 1010 -32 132 -46 334 -32 459 53 492 381 923 839 1105 182 71 302
91 529 87 158 -3 200 -8 285 -29z"/>
<path d="M2328 3598 c-6 -14 -12 -16 -37 -7 -37 13 -100 -3 -127 -32 -11 -13
-19 -35 -19 -60 0 -53 34 -86 111 -105 105 -27 131 -62 78 -103 -42 -33 -89
-28 -131 14 -20 20 -38 34 -40 32 -2 -3 2 -29 10 -58 10 -37 17 -49 21 -38 6
14 13 15 41 6 78 -24 175 37 175 109 0 48 -34 79 -106 99 -33 8 -70 21 -84 28
-33 17 -37 51 -8 71 35 25 73 20 108 -15 17 -17 33 -29 36 -26 3 3 -1 27 -8
54 -10 34 -16 43 -20 31z"/>
<path d="M2632 3598 c-112 -24 -170 -183 -102 -279 27 -37 91 -68 140 -69 19
0 58 5 87 12 53 13 63 24 63 76 0 15 9 26 26 33 15 5 25 11 23 13 -7 7 -143
25 -148 20 -3 -2 5 -11 17 -20 12 -8 22 -26 22 -40 0 -76 -127 -88 -165 -15
-29 58 -15 167 30 215 50 54 152 26 171 -48 12 -50 27 -30 37 52 3 31 -5 42
-18 22 -3 -5 -21 -2 -43 9 -49 25 -88 30 -140 19z"/>
<path d="M2389 2710 c-50 -77 -96 -140 -103 -140 -6 0 -137 23 -290 50 -273
50 -307 52 -293 18 3 -7 75 -119 160 -248 l155 -235 333 -3 333 -2 160 36 c89
20 166 41 173 46 17 14 275 418 281 440 3 14 -2 18 -23 18 -23 0 -474 -72
-530 -85 -16 -3 -45 23 -130 120 -61 68 -116 124 -123 124 -7 1 -53 -62 -103
-139z m137 -50 c19 -73 33 -134 31 -136 -3 -4 -218 33 -222 38 -4 5 147 239
152 235 2 -3 20 -64 39 -137z m217 -123 l50 -59 -47 7 c-26 4 -71 13 -99 19
l-51 11 -33 125 -32 125 80 -85 c44 -47 103 -111 132 -143z m291 33 c-89 -43
-171 -81 -181 -84 -15 -5 -29 5 -61 42 l-41 49 212 35 c117 20 217 36 222 36
6 0 -63 -35 -151 -78z m-759 -31 c281 -51 513 -95 518 -99 4 -3 -21 -63 -55
-133 l-62 -127 -321 1 -320 0 -140 215 c-147 227 -152 234 -138 234 4 0 238
-41 518 -91z m958 78 c-4 -8 -59 -92 -120 -189 l-113 -175 -137 -31 c-76 -17
-139 -30 -140 -28 -2 1 23 58 55 126 l59 123 194 93 c107 50 198 92 202 93 4
1 4 -5 0 -12z"/>
<path d="M3480 2435 c0 -26 3 -35 9 -26 6 10 29 12 90 10 67 -4 81 -2 81 11 0
12 -17 16 -82 18 -50 2 -85 8 -90 15 -4 7 -8 -6 -8 -28z"/>
<path d="M1343 2439 c-1 -12 -1 -20 0 -18 2 2 9 12 16 22 11 14 11 17 -1 17
-7 0 -14 -10 -15 -21z"/>
<path d="M1438 2443 c-8 -10 -20 -33 -28 -50 -13 -34 -37 -42 -58 -21 -9 9
-12 9 -12 0 0 -6 11 -19 24 -27 34 -23 59 -7 81 50 14 37 21 46 39 43 31 -4
34 -51 4 -73 -21 -15 -21 -16 -3 -13 27 4 42 50 27 83 -14 30 -51 34 -74 8z"/>
<path d="M3472 2280 c-15 -25 -16 -62 0 -78 22 -22 53 -13 88 28 40 47 70 47
70 1 0 -31 -8 -44 -35 -59 -17 -10 -17 -11 -3 -12 23 0 48 38 48 75 0 67 -53
75 -101 15 -39 -49 -69 -53 -69 -11 0 20 8 35 22 45 15 11 18 16 8 16 -9 0
-21 -9 -28 -20z"/>
<path d="M1460 2223 c-41 -12 -81 -20 -88 -17 -10 3 -11 -2 -6 -19 9 -30 7
-29 40 -12 35 18 51 19 57 3 4 -8 6 -7 6 4 1 17 52 34 71 23 11 -7 12 2 2 25
-6 13 -16 13 -82 -7z"/>
<path d="M1550 2159 c0 -14 -5 -30 -11 -36 -9 -9 -7 -10 9 -6 18 4 21 10 15
32 -8 36 -13 39 -13 10z"/>
<path d="M1459 2143 c-11 -12 -8 -13 17 -7 37 9 39 10 15 17 -11 3 -26 -2 -32
-10z"/>
<path d="M1390 2095 c0 -9 7 -18 15 -22 24 -9 27 1 5 20 -17 14 -20 15 -20 2z"/>
<path d="M3558 2059 c6 -7 12 -22 12 -33 0 -17 2 -18 10 -6 14 22 12 28 -12
41 -19 9 -21 9 -10 -2z"/>
<path d="M1600 2034 c0 -5 -33 -27 -74 -49 l-74 -39 18 -36 c39 -76 102 -96
108 -34 3 29 6 32 35 30 26 -1 33 3 35 21 2 12 -2 30 -8 40 -8 13 -10 14 -9 3
3 -30 -1 -39 -21 -45 -12 -4 -27 -1 -35 5 -11 9 -14 7 -12 -15 1 -18 -5 -32
-20 -42 -20 -13 -23 -13 -42 6 -12 12 -21 28 -21 36 0 18 56 48 72 39 6 -4 8
-3 5 3 -8 12 50 46 64 37 7 -4 7 2 -1 17 -16 30 -20 35 -20 23z"/>
<path d="M3381 2011 c-8 -14 -8 -21 -1 -21 8 0 121 -50 151 -67 5 -3 29 41 29
54 0 3 -7 0 -15 -7 -12 -10 -27 -8 -78 15 -34 15 -65 32 -68 38 -4 5 -12 0
-18 -12z"/>
<path d="M3306 1891 c-3 -5 5 -8 18 -7 13 0 22 4 19 9 -6 10 -31 9 -37 -2z"/>
<path d="M3350 1823 c0 -37 -20 -44 -55 -17 l-32 24 -18 -20 c-14 -15 -15 -19
-4 -15 9 3 42 -15 81 -44 l66 -50 28 37 c18 24 20 31 8 20 -27 -24 -47 -23
-70 3 -19 21 -18 21 3 39 20 15 21 20 8 30 -12 10 -15 9 -15 -7z"/>
<path d="M3443 1799 c-2 -17 1 -18 12 -9 8 7 12 16 9 21 -9 16 -20 10 -21 -12z"/>
<path d="M1735 1774 c-16 -8 -22 -12 -12 -9 21 6 22 -7 1 -47 l-16 -31 -21 22
c-22 22 -22 22 -3 37 25 18 21 18 -42 -4 -29 -10 -49 -21 -46 -25 3 -3 17 -1
30 5 22 10 29 8 52 -15 22 -22 25 -30 15 -45 -6 -9 -17 -16 -25 -14 -7 2 -2
-8 12 -23 l25 -26 6 23 c3 13 17 46 31 73 31 61 42 95 31 95 -4 -1 -21 -8 -38
-16z"/>
<path d="M3150 1704 c-14 -8 -18 -13 -10 -11 8 2 26 0 39 -5 22 -8 23 -7 10 9
-7 10 -13 19 -14 20 0 1 -11 -5 -25 -13z"/>
<path d="M3096 1668 c-57 -81 42 -188 122 -132 36 25 51 64 38 96 -11 26 -12
26 -35 9 -23 -18 -23 -18 -2 -24 14 -3 21 -13 21 -29 0 -78 -115 -55 -136 27
-4 15 -2 37 5 51 13 30 7 31 -13 2z"/>
<path d="M1877 1642 c-22 -24 -21 -40 3 -80 11 -18 20 -39 20 -48 0 -21 -27
-28 -58 -15 -25 11 -26 10 -8 -4 11 -8 32 -15 46 -15 51 0 65 42 30 95 -23 35
-26 61 -6 68 21 8 56 -21 56 -46 0 -18 2 -19 10 -7 8 11 3 22 -20 43 -36 32
-51 34 -73 9z"/>
<path d="M1806 1553 c-4 -9 -2 -21 4 -27 7 -7 10 -2 10 17 0 31 -5 34 -14 10z"/>
<path d="M2047 1557 c-4 -10 2 -13 20 -9 18 3 21 7 11 13 -18 12 -25 11 -31
-4z"/>
<path d="M2115 1539 c11 -16 -44 -147 -63 -151 -11 -3 -6 -8 16 -15 28 -11 32
-10 32 5 0 27 40 126 56 138 12 10 10 14 -16 22 -19 7 -28 7 -25 1z"/>
<path d="M2840 1528 c0 -2 9 -32 20 -67 11 -35 19 -65 17 -67 -1 -2 -33 21
-70 50 -47 38 -73 52 -87 49 -22 -6 -25 -14 -11 -28 13 -15 43 -134 36 -145
-7 -12 3 -12 30 0 15 7 16 9 4 9 -11 1 -22 20 -33 62 -10 33 -16 63 -13 65 2
2 35 -20 73 -51 75 -60 100 -69 90 -32 -3 12 -13 52 -23 90 -10 37 -21 67 -25
67 -4 0 -8 -1 -8 -2z"/>
<path d="M2192 1508 c9 -7 18 -20 21 -28 4 -10 6 -8 6 6 1 12 -6 25 -15 28
-25 9 -29 7 -12 -6z"/>
<path d="M2308 1450 c2 -19 -3 -58 -11 -87 -12 -45 -12 -53 0 -58 23 -8 35 -6
28 6 -11 16 15 143 31 155 12 10 8 12 -18 16 -32 3 -33 3 -30 -32z"/>
<path d="M2506 1429 c-9 -23 -15 -44 -12 -46 3 -3 8 6 12 21 3 14 9 26 13 26
10 0 53 -119 46 -130 -4 -6 8 -10 32 -10 27 1 34 3 23 10 -9 4 -31 45 -50 89
-18 45 -37 81 -41 81 -4 0 -14 -19 -23 -41z"/>
<path d="M2468 1331 c-14 -35 -14 -41 -2 -41 9 0 12 4 9 10 -3 5 -1 19 5 30 6
12 10 26 8 32 -2 6 -11 -8 -20 -31z"/>
</g>
</svg>
